<?xml version="1.0" encoding="utf-8"?>
<!-- Generator: Adobe Illustrator 22.1.0, SVG Export Plug-In . SVG Version: 6.00 Build 0)  -->
<svg version="1.1" id="Layer_1" xmlns="http://www.w3.org/2000/svg" xmlns:xlink="http://www.w3.org/1999/xlink" x="0px" y="0px"
	 width="75px" height="75px" viewBox="0 0 75 75" style="enable-background:new 0 0 75 75;" xml:space="preserve">
<style type="text/css">
	.st0{fill:#FFFFEC;}
	.st1{fill:#764444;}
	.st2{fill:#EEB4B4;}
	.st3{fill:#333333;}
	.st4{fill:#D0D2C3;}
	.st5{fill:#FFFFFF;}
</style>
<g transform="matrix( 1, 0, 0, 1, 117.85,180.6) ">
	<g transform="matrix( 1, 0, 0, 1, 0,0) ">
		<g>
			<g id="Layer0_0_FILL">
				<path class="st0" d="M-114.4-133.4v-0.6c0-1-0.2-2.1-0.5-3.1C-114.8-135.8-114.6-134.6-114.4-133.4 M-114.6-132.8l0.2,0.6v-0.6
					L-114.6-132.8 M-115.1-141.2c0-0.2,0-0.6-0.1-1.1c0,0.1,0,0.2,0,0.4c0,0.4,0,0.9,0.1,1.3C-115.2-140.8-115.1-141-115.1-141.2
					 M-114.4-148.3l-0.2,0.9c0,0.3,0.1,0.7,0.2,1.2V-148.3 M-75-107.7l-0.9,0.3c0.5,0,0.9-0.1,1.4-0.1
					C-74.7-107.5-74.8-107.6-75-107.7 M-107.5-120.4l0.1,0.2c0.3,0.3,0.7,0.6,1,0.9c0.1,0.1,0.2,0.2,0.4,0.3c0.3,0.2,0.6,0.5,1,0.8
					c0.1,0,0.3,0.1,0.4,0.2c-0.2-0.2-0.3-0.3-0.5-0.5c-0.3-0.3-0.8-0.7-1.6-1.2C-107-119.9-107.3-120.2-107.5-120.4 M-111.2-122.3
					c-0.2-0.4-0.5-0.8-0.7-1.2c-0.4-0.4-0.8-0.8-1-1.2c2.1,3.4,4,5.8,5.7,7.3c0.5,0.4,1.1,0.8,1.7,1.3c0.2,0.2,0.5,0.3,0.8,0.5
					l-2.3-1.9c0,0.1,0.1,0.2,0.1,0.3l-0.5-0.6l-0.6-0.5c-0.3-0.3-0.6-0.5-0.8-0.8c-0.3-0.2-0.5-0.4-0.7-0.6
					C-110-120.3-110.6-121.2-111.2-122.3 M-80.7-177.3c0,0,0-0.1,0.1-0.1c-0.7,0-1.3,0-2,0l-1.5,0.6c1.3-0.2,2.4-0.4,3.5-0.4
					C-80.7-177.2-80.7-177.2-80.7-177.3 M-99-171.9l-0.4,0.3l0.1,0.2c0.8-0.4,1.4-0.8,2.1-1.1c0.7-0.5,1.3-0.9,1.7-1.2
					c-0.6,0.1-1.1,0.3-1.5,0.5C-97.6-172.9-98.2-172.5-99-171.9 M-92.6-175c-0.1,0-0.2,0.1-0.3,0.1c1-0.4,2.2-0.8,3.5-1.3
					c1.4-0.5,2.7-0.8,3.7-0.9c0.7-0.1,1.3-0.1,1.7-0.2c-2.3,0.2-4,0.5-5.1,0.8C-89.9-176.2-91.1-175.7-92.6-175 M-59-167.5
					c-0.2-0.2-0.5-0.4-0.8-0.6c-0.9-0.6-2.1-1.4-3.7-2.3c-1.2-0.7-2.1-1.1-2.7-1.4l-2.4-0.9c0,0,0,0.1,0,0.1c0,0.2-0.2,0.4-0.5,0.6
					l-0.1,0.3l-0.2,0.4l-0.1,0.2l-0.3,0.1l-0.4,0.3c-0.2,0.1-0.4,0.1-0.4,0.1c0-0.1,0.1-0.2,0.3-0.4c0.3-0.2,0.5-0.5,0.5-0.9v-0.5
					l0.2-0.3c0.1-0.1,0.3-0.2,0.4-0.3l-2.1-0.8c-0.5-0.2-0.8-0.4-0.9-0.5c-0.2-0.2-0.3-0.5-0.3-0.7c-0.3-0.1-0.7-0.2-1-0.3
					c-0.6-0.1-1-0.3-1.2-0.5c-0.1-0.1-0.2-0.2-0.2-0.3h-0.1c0,0,0,0.1-0.1,0.1h-0.2l-1.5-0.2c0.2,0.2,0.3,0.5,0.4,0.9l-1.7-0.2
					c-0.6,0-1.7,0-3.5,0.2l-9.2,1.8c-1.2,0.3-2.1,0.5-2.7,0.7l-2.1,0.8c-0.3,0.2-0.6,0.3-0.8,0.3c-0.9,0.5-2,1.2-3.4,2l-0.6,0.3
					c-0.1,0.1-0.1,0.1-0.2,0.2l-0.6,0.4c-0.1,0-0.2,0.1-0.3,0.1l-0.7,0.3c-0.8,0.4-1.6,0.9-2.3,1.4l-3.3,3.1
					c-0.3,0.3-0.6,0.5-0.9,0.6c-0.1,0-0.3,0-0.4,0l-0.9,1c-0.4,0.5-0.7,1.1-1,1.8c-0.1,0.2-0.3,0.5-0.4,0.8
					c-0.5,1.4-0.9,2.3-1.2,2.8c-0.1,0.1-0.3,0.1-0.4,0.1c-0.2,0.5-0.4,1-0.6,1.5c-0.1,0.5-0.2,1.1-0.4,1.7l-0.9,4.6
					c0.1-0.1,0.2-0.1,0.2-0.2c0,0,0.1,0,0.1,0c0.1-0.1,0.2-0.1,0.4-0.1v-0.4c0.2-0.3,0.4-0.5,0.6-0.5s0.4,0.2,0.5,0.5l0.1,0.6
					l0.2,5.1v0.1l0.1,1.9c0.1,1.1,0.2,1.7,0.2,1.8c0,0,0.1,0.4,0.2,1.1l0.3,1.3l2.8,7.8c0.1,0.4,0.1,0.6,0.1,0.7
					c0,0.3-0.1,0.4-0.3,0.5c-0.1,0-0.1,0.1-0.2,0.1c0,0.1,0.1,0.2,0.2,0.3l0.8,0.9l0.8-0.7c0.4-0.4,0.8-0.6,1-0.6
					c0,0.1,0,0.3-0.1,0.6c-0.1,0.3-0.4,0.6-0.9,1c-0.1,0.1-0.2,0.2-0.3,0.3l0.2,0.2c1.3,1.3,2.6,2.6,3.8,3.7c0.3,0,0.6,0.2,1,0.6
					c0.1,0,0.1,0.1,0.2,0.2l0.7,0.3c0-0.1-0.1-0.1-0.1-0.2c-0.1-0.3-0.2-0.5-0.2-0.6c0-0.2,0.2-0.5,0.5-0.9c0.1,0,0.2,0,0.3-0.1
					c0.3,0.1,0.5,0.3,0.4,0.6l-0.2,0.4c0,0.2,0,0.6,0.2,1c0,0.1,0,0.1-0.1,0.3l2.4,1.2c4,2,7.1,3.3,9.4,3.8c0.6,0.1,1.3,0.3,2.2,0.4
					c0-0.2-0.2-0.4-0.4-0.7c-0.3-0.3-0.5-0.5-0.6-0.6l-0.2-0.3l-0.4-0.3c-0.2-0.1-0.3-0.3-0.4-0.7c-0.1-0.5-0.2-0.8-0.1-1.2l0.2-0.1
					c0,0.4,0.1,0.7,0.2,0.9c0,0.1,0.2,0.2,0.4,0.4l0.5,0.6l0.8,1.3c0.1,0.1,0.2,0.3,0.3,0.6c0.3,0,0.6,0.1,0.9,0.2v0
					c0.2-0.1,0.4-0.2,0.6-0.2c0.3,0,0.7,0.1,1.1,0.3c0.1,0,0.1,0.1,0.2,0.1c0.7,0.1,1.4,0.2,2.3,0.3c0,0.1-0.1,0.2-0.2,0.3
					c0.2,0,0.4,0,0.6,0v0c-0.1-0.5-0.2-0.9-0.3-1.1l0.3-0.2c0.1,0.1,0.1,0.3,0.2,0.7s0.1,0.5,0.2,0.7l0.1,0c1.3,0,3.1-0.1,5.2-0.3
					c0.1,0,0.3,0,0.4,0c0.9-0.2,1.9-0.4,3.1-0.7c2.2-0.5,3.8-0.9,4.8-1.3c0.1,0,0.3-0.1,0.4-0.2c-0.1-0.2-0.3-0.5-0.5-0.8l-0.9-1.1
					c-0.5-0.8-0.6-1.5-0.2-2.3c0.1-0.2,0.2-0.3,0.3-0.4c0.1-0.2,0.1-0.3,0.1-0.4c0-0.3,0.1-0.5,0.2-0.3c0.2,0.2,0.2,0.4,0.1,0.8
					c0,0.2-0.1,0.5-0.3,0.9c0,0.3,0.1,0.6,0.3,0.8c0.2,0.5,0.4,0.8,0.6,1.1c0.1,0.2,0.3,0.5,0.6,0.8l0.2,0.6c0,0,0,0.1,0.1,0.1
					c1.3-0.5,2.5-1.1,3.6-1.8c1.1-0.7,1.9-1.3,2.5-1.6c0.8-0.4,1.5-0.7,2.1-0.8c1.2-1,2.4-1.9,3.5-2.7l-0.1-0.1
					c-0.5-0.8-0.8-1.4-0.7-1.9c0.1-0.3,0.1-0.5,0.1-0.7c-0.1-0.3-0.2-0.5-0.2-0.6c-0.1-0.3-0.2-0.9-0.1-1.6c0.2,0,0.3,0,0.5,0.1
					c-0.2,0.5-0.2,1.4,0.1,2.5c-0.1,0.7,0,1.1,0.2,1.3c0.1,0.1,0.2,0.2,0.4,0.3c0.1,0.1,0.2,0.1,0.2,0.3c0,0,0-0.1,0.1-0.1l2.9-4.6
					c0.5-0.8,1-1.7,1.5-2.6c0.1-0.2,0.1-0.4,0.2-0.5h0.1c0.1-0.3,0.3-0.7,0.5-1c-0.2-0.2-0.4-0.4-0.6-0.6c-0.2-0.2-0.4-0.4-0.7-0.6
					c-0.5-0.2-0.8-0.4-0.9-0.6c-0.1-0.2-0.1-0.4,0.1-0.4l0.2-0.1c0.7,0.2,1.2,0.4,1.6,0.7l0.4,0.3l0.3,0.4c0.6-1.2,1.1-2.4,1.7-3.8
					c0.2-0.6,0.5-1,0.8-1.3c0.1-0.1,0.1-0.1,0.2-0.1c0-0.2,0-0.5,0.1-0.7c0,0-0.1,0-0.1-0.1c-0.4-0.3-0.7-0.8-0.7-1.3
					c0-0.2,0.2-0.5,0.4-0.9c0-0.1,0.1-0.1,0.2-0.2l-1.2-4.1c-0.3-1-0.6-1.8-0.8-2.3c-0.3-0.9-0.5-1.7-0.5-2.4l-0.3-2.1v-0.4
					c0-0.1-0.1-0.1-0.1-0.2c-0.1-0.4-0.3-0.8-0.5-1.3c-0.1-0.3-0.3-0.5-0.4-0.8c-0.4-0.6-0.7-1.1-0.8-1.3c-0.1-0.4-0.2-0.6-0.3-0.7
					l-0.1-0.1l-2.4-3.1c-0.7-0.9-1.2-1.7-1.5-2.4c-0.6-0.4-1-0.8-1.4-1.1C-57.3-166.1-58.2-166.9-59-167.5 M-67.7-167.9
					c0.4,0.2,1.1,0.5,1.9,0.8c0.8,0.3,1.4,0.7,1.8,0.9c0.8,0.5,1.8,1.3,3,2.5c1.3,1.2,2.2,2.2,2.9,3.1c0.2,0.2,0.3,0.4,0.5,0.7
					c0.5,0.7,1.1,1.8,1.7,3.1c0.8,1.7,1.3,2.7,1.5,3.2c0.9,1.6,1.4,2.8,1.5,3.4c0.1,1.5-0.4,2.6-1.5,3.5c-1.2,0.9-2.4,1.1-3.8,0.6
					c-1-0.4-2-1.1-2.8-2.3c-0.4-0.6-0.9-1.7-1.5-3.3c-1.1-2.6-2.4-4.7-3.8-6.3c-0.7-0.8-1.7-1.7-3-2.7c-0.7-0.5-1.5-1.1-2.4-1.6
					c-1.5-1-2.4-1.8-2.8-2.6c-0.4-0.9-0.4-1.8,0.2-2.7c0.5-0.9,1.3-1.4,2.3-1.6c0.7-0.1,1.4,0,2.2,0.3
					C-69.3-168.7-68.7-168.4-67.7-167.9 M-85.2-122.8c0.2-0.6,0.3-0.9,0.5-1l-0.3,1.5c0,0.2-0.1,0.3-0.2,0.5l-0.4,0.6
					c-0.1,0.2-0.2,0.4-0.3,0.7c-0.1,0.3-0.2,0.6-0.2,0.8c-0.1,0.2-0.3,0.2-0.5,0c0-0.5,0.1-1,0.4-1.5
					C-85.7-121.9-85.4-122.4-85.2-122.8 M-89-121L-89-121l-0.1,0.1l-0.2-0.1l0.1-0.6l0.2-0.1C-89-121.5-89-121.3-89-121
					 M-49.7-152.9c0.1,0,0.2,0.1,0.3,0.3c-1-0.1-2.1-0.2-3.3-0.2v-0.1h0.1v-0.1l2.6,0.1L-49.7-152.9 M-65.5-124.2l0.1,0.5
					c0,0.2,0.2,0.4,0.4,0.7c0.1,0.1,0.1,0.3,0.2,0.8c0.1,0.2,0.2,0.5,0.4,0.9c0.1,0.3,0,0.8-0.3,1.3l-0.4,1h-0.4c0-0.2,0-0.5,0.2-1
					c0.2-0.6,0.2-1.1,0.1-1.3c-0.2-0.3-0.3-0.5-0.3-0.7l-0.1-0.6l-0.2-0.3c0,0,0-0.2,0.1-0.6c0.1-0.3,0-0.7-0.2-1
					C-65.7-124.6-65.5-124.5-65.5-124.2 M-115.1-135.7c0,0-0.1,0.1-0.1,0.1c-0.1,0-0.2,0-0.3,0l0.7,2.2
					C-114.9-134.3-115-135-115.1-135.7 M-47.8-156.3c0-0.3-0.1-0.5-0.1-0.7v-0.1c-0.1-0.1-0.1-0.1-0.2-0.1
					C-48-156.8-47.9-156.5-47.8-156.3z"/>
				<path class="st0" d="M-99.8-171.4c-0.1,0-0.1,0.1-0.2,0.2c0.2-0.1,0.4-0.2,0.6-0.4C-99.6-171.5-99.7-171.4-99.8-171.4"/>
				<path class="st0" d="M-96.3-120.5c0,0,0.1-0.1,0.2-0.1c0,0,0.1,0.1,0.1,0.1C-96.1-120.5-96.2-120.5-96.3-120.5"/>
				<path class="st1" d="M-70-109.9l-0.3,0.1C-70.2-109.8-70.1-109.9-70-109.9L-70-109.9 M-52.2-122.3c-0.1,0-0.1,0-0.2,0.1
					c-0.1,0.1-0.2,0.3-0.3,0.5L-52.2-122.3 M-43.4-141.3L-43.4-141.3l0.3,0.3c0,0,0.1,0.1,0.1,0.1c0-0.1,0-0.2-0.1-0.3
					C-43.1-141.2-43.2-141.2-43.4-141.3 M-104.6-118c-0.1-0.1-0.3-0.2-0.4-0.2c-0.1-0.1-0.3-0.1-0.4-0.2c-0.2,0.1-0.1,0.2,0.2,0.5
					c0.5,0.3,1.4,0.8,2.6,1.6c0,0,0.1,0.1,0.1,0.1c-0.1,0-0.2,0.1-0.2,0.3s0.1,0.3,0.3,0.4c1.7,1.1,3.1,2,4.4,2.8l0.1,0
					c0,0,0.1,0,0.1,0.1c0.5,0.3,1,0.5,1.5,0.8c0.4,0.2,0.9,0.3,1.3,0.5c0,0,0.1,0.1,0.2,0.1l0.3,0.1c0.1,0.1,0.1,0.1,0.2,0.2
					c0.4,0.2,0.8,0.3,1.2,0.4c0.3,0.1,0.7,0.3,1.4,0.5c0.1,0,0.2,0.1,0.3,0.1c0.6,0.3,1.1,0.5,1.5,0.7c0.9,0.3,2.2,0.7,4,1l2.5,0.4
					c1.2,0.2,2.2,0.3,2.8,0.2c0.4,0,1-0.1,1.7-0.3c0.1,0,0.2,0,0.3,0c0.4,0,0.9-0.1,1.3-0.1v0.1c1.3,0,2.7,0,4.1-0.3l1.3-0.3
					l1.4-0.7c-0.2,0-0.3,0-0.4,0c-0.2,0-0.5,0.2-0.9,0.3c-1,0.5-2.1,0.7-3.1,0.7c-0.2,0-0.4,0-0.4-0.2c-0.1-0.2,0-0.3,0.2-0.3
					l1.1-0.2c0.2-0.1,0.4-0.3,0.6-0.5c-1.7,0.1-3,0.1-3.9,0.2c-1.5,0-2.8,0-3.9-0.1c-0.8-0.1-1.4-0.1-2-0.1
					c-1.7-0.3-2.9-0.5-3.4-0.7c-1.3-0.2-2.5-0.5-3.7-0.8c-0.1,0-0.1-0.1-0.2-0.1c-0.6-0.2-1-0.3-1.3-0.4c-0.6-0.4-1.1-0.6-1.4-0.8
					c-0.2-0.2-0.4-0.2-0.5,0c0,0-0.1,0.1-0.1,0.2c-0.1,0-0.1-0.1-0.2-0.1l-2.9-1.2c-0.2-0.1-0.4-0.2-0.6-0.2
					c-0.1-0.1-0.2-0.2-0.3-0.3l-6.3-4C-104.4-117.9-104.5-118-104.6-118 M-53.9-165.6c-0.2-0.1-0.3,0-0.5,0.2
					c-0.1,0.2,0,0.4,0.1,0.6l1.4,2.4l0.3,0.8c0.1,0.3,0.3,0.6,0.6,1.1c0.1,0.2,0.2,0.4,0.4,0.7l0.2,0.6l0.5,0.7l0.1,0.1
					c0,0,0.1,0.3,0.3,0.7c0.1,0.2,0.4,0.7,0.8,1.3c0.1,0.2,0.3,0.5,0.4,0.8c0.2,0.4,0.4,0.8,0.5,1.3c0,0.1,0,0.1,0.1,0.2
					c0,0.1,0.1,0.2,0.1,0.3l0.3,0.7l0.1,0.1c0.1,0.4,0.3,0.8,0.5,1.3l1.2,3.7v0.1c0,0.3,0.2,0.8,0.4,1.6l0.6,3.2
					c0,0.2,0.1,0.4,0.1,0.5c0,0.2,0,0.3-0.1,0.4c-0.1,0.4-0.1,0.7-0.1,0.7c0.1-0.1,0.2-0.3,0.3-0.6l0.2,0.6c0.1,0.3,0.2,0.6,0.4,0.8
					c-0.1,0-0.1,0.1-0.2,0.2c-0.1,0.1-0.2,0.3-0.2,0.6c0,0-0.1,0.1-0.1,0.1v0.1c0,0.3,0.1,0.5,0.2,0.6l0.4,0.4l-0.2,0.4
					c-0.1,0.6-0.3,1.4-0.6,2.3c-0.2,0.5-0.5,1.3-0.9,2.3c-0.2,0.3-0.3,0.7-0.3,1.1l-0.8,2.1c-0.1,0.3-0.3,0.6-0.4,0.9
					c-0.2,0.6-0.4,1-0.5,1.4c0,0.1-0.1,0.1-0.1,0.2l-1.6,2.3l-2.7,3.8l-0.3,0.7l-0.6,0.9l-1.3,1.6h0.1c0.2,0,0.3-0.1,0.5-0.3
					c0.3-0.3,0.7-0.6,0.9-0.8c0.1-0.1,0.2-0.3,0.4-0.5l0.7-1.3c0.2-0.3,0.6-1,1.3-1.9l3-4.7c0.1-0.2,0.5-1.2,1.1-2.9
					c0.3-0.8,0.7-1.6,1.3-2.5c-0.4,0.9-0.8,1.8-1.1,2.6l-0.4,1.2l-1.3,2.9c-0.3,0.7-0.6,1.3-0.9,1.9l-0.8,1
					c-0.7,0.9-1.1,1.4-1.2,1.6c-0.1,0.1-0.1,0.3-0.2,0.4l2.3-2.7h0.1c0.1-0.2,0.5-0.6,1-1c0.4-0.4,0.7-0.8,0.8-1.1l0.2-0.7l1.2-2.3
					l0.3-1l1.4-3.5c0.3-1,0.4-1.6,0.5-1.9c-0.1,0.5-0.3,0.9-0.6,1.3c-0.4,0.6-0.6,1-0.7,1.2l0.2-1.8l0.3-0.7c0.4-1,0.5-2.1,0.3-3.2
					v-0.5c0,0-0.1-0.1-0.2-0.3l-0.1-0.4c0-0.2,0-0.3,0.1-0.4c0.1-0.1,0.2-0.2,0.3-0.1v-0.1l0.3,0.2l0.2,0.3v0.3l0.2-0.2h0.1
					c0-0.1,0-0.2,0-0.3c0-0.1,0-0.2-0.1-0.3c-0.2-0.5-0.3-0.9-0.4-1.2v-0.1c0.1-0.6,0.1-1,0-1.3c0-0.2-0.2-0.5-0.6-0.9
					c-0.1-0.1-0.1-0.2-0.2-0.3c-0.1-0.1-0.1-0.2-0.2-0.3l-0.3-2.3c0-0.2,0-0.5-0.1-0.8c0-0.1,0-0.2-0.1-0.3l-0.2-1.3l-0.5-2
					l-1.4-2.9l-0.3-0.9l-2.1-4c0-0.1-0.1-0.2-0.1-0.3c-0.1-0.3-0.3-0.5-0.4-0.7l-1.2-2.1c-0.4-0.7-0.9-1.3-1.7-1.9
					C-53.5-165.5-53.7-165.6-53.9-165.6 M-49.3-156.9l0.1,0.5l0.4,0.6l0.2,0.5c0.1,0.1,0.1,0.3,0.2,0.6c0.1,0.2,0.2,0.6,0.5,1.1
					l0.8,1.4l0.3,0.8c0.1,0.2,0.1,0.5,0.2,0.9l0.2,0.4l0.4,2.4c0.2,0.9,0.4,1.6,0.6,2.1l-0.3,0c0-0.1-0.1-0.7-0.4-1.6
					c0,0-0.1-0.3-0.2-0.8l-0.9-4l-0.2-0.4c0-0.3-0.2-0.6-0.4-0.9c-0.3-0.5-0.5-0.8-0.5-0.9c-0.2-0.6-0.3-1.1-0.5-1.4
					c-0.3-0.4-0.4-0.6-0.5-0.8l-0.1-0.4c-0.1-0.2-0.1-0.3-0.1-0.4C-49.4-157.2-49.3-157.1-49.3-156.9z"/>
				<path class="st2" d="M-67.7-122.6c0.1-0.4,0.1-0.7-0.1-0.8c-0.1-0.1-0.2,0-0.2,0.3c0,0.1,0,0.3-0.1,0.4
					c-0.1,0.1-0.2,0.2-0.3,0.4c-0.4,0.7-0.4,1.5,0.2,2.3l0.9,1.1c0.2,0.3,0.4,0.6,0.5,0.8c0.2,0.3,0.3,0.4,0.3,0.4
					c0.2,0.2,0.5,0.4,0.9,0.7c0.1,0.1,0.2,0.3,0.4,0.6c0.2,0.3,0.3,0.4,0.5,0.4c-0.2-0.4-0.4-0.8-0.8-1.2c-0.5-0.5-0.8-0.9-0.8-1.2
					c0,0-0.1-0.1-0.1-0.1l-0.2-0.6c-0.3-0.4-0.5-0.7-0.6-0.8c-0.2-0.2-0.4-0.6-0.6-1.1c-0.2-0.3-0.3-0.6-0.3-0.8
					C-67.8-122.1-67.7-122.4-67.7-122.6 M-56.8-116.8c0.3-0.3,0.5-0.6,0.6-0.9v-0.1c0,0.1,0,0.1-0.1,0.1c0,0.1-0.1,0.2-0.2,0.3
					l-0.3,0.4l-0.5,0.5l-1.6,1.4l-0.3,0.2l-2.2,1.7l-0.2,0.1l-0.5,0.2c-0.3,0.1-0.5,0.2-0.8,0.4l-0.9,0.5l-1,0.6
					c-0.2,0.1-0.3,0.3-0.3,0.4l0.5-0.1c0.7-0.2,1.5-0.6,2.4-1.2c0.3-0.3,0.6-0.4,0.9-0.5l2.5-2L-56.8-116.8 M-55.1-129.7
					c-0.2-0.1-0.3-0.1-0.5-0.1c-0.1,0.7,0,1.2,0.1,1.6c0,0.1,0.1,0.3,0.2,0.6c0,0.1,0,0.3-0.1,0.7c-0.1,0.5,0.2,1.1,0.7,1.9l0.1,0.1
					c0.3,0.4,0.5,0.5,0.7,0.4c0.1,0.3,0.2,0.5,0.3,0.8l0.2-0.1l-0.2-0.8c-0.1-0.4-0.3-0.5-0.6-0.4c0,0,0-0.1,0-0.1
					c0-0.1-0.1-0.2-0.2-0.3c-0.2-0.1-0.3-0.2-0.4-0.3c-0.2-0.2-0.3-0.7-0.2-1.3C-55.3-128.3-55.3-129.2-55.1-129.7 M-47.3-130.6
					l0.4-1.2c0.3-0.8,0.6-1.7,1.1-2.6c-0.6,0.9-1,1.7-1.3,2.5c-0.6,1.7-1,2.7-1.1,2.9l-3,4.7c-0.7,0.9-1.2,1.6-1.3,1.9l-0.7,1.3
					c-0.1,0.2-0.3,0.3-0.4,0.5c-0.4,0.5-0.7,0.8-0.7,0.8l1.2-1.3c0.1-0.2,0.3-0.3,0.4-0.5c0.1-0.2,0.2-0.4,0.3-0.5
					c0,0,0.1,0,0.2-0.1l0.5-0.5c0.1-0.1,0.1-0.2,0.2-0.4c0.1-0.2,0.5-0.7,1.2-1.6l0.8-1c0.3-0.6,0.7-1.2,0.9-1.9L-47.3-130.6
					 M-48.6-134.8l-0.3-0.4l-0.4-0.3c-0.4-0.3-0.9-0.5-1.6-0.7l-0.2,0.1c-0.2,0.1-0.2,0.3-0.1,0.4c0.1,0.2,0.4,0.4,0.9,0.6
					c0.3,0.2,0.5,0.4,0.7,0.6c0.1,0.1,0.3,0.3,0.6,0.6c0,0,0,0.1,0.1,0.1c0.2,0.1,0.3,0.1,0.3,0.3l0.2,0c0.1-0.4,0.2-0.8,0.1-1
					L-48.6-134.8 M-44-141.4l-0.2-0.3l-0.3-0.2v0.1c-0.1,0-0.2,0-0.3,0.1c-0.1,0.1-0.1,0.2-0.1,0.4l0.1,0.4c0.1,0.2,0.1,0.3,0.2,0.3
					v0.5c0.2,1.1,0.1,2.2-0.3,3.2l-0.3,0.7l-0.2,1.8c0-0.2,0.3-0.6,0.7-1.2c0.3-0.4,0.5-0.8,0.6-1.3l0.1-0.1c0-0.1,0.1-0.1,0.1-0.1
					l0.1-0.1c0-0.1,0.1-0.2,0.1-0.3c0-0.3,0.1-0.6,0.1-0.8c0.1,0.3,0.1,0.4,0.2,0.4c0.1,0.1,0.3,0.2,0.5,0.1
					c0.1-0.1,0.2-0.2,0.4-0.4v-0.1v-0.1l0.1-0.7c0-0.4,0-0.8-0.1-1c0-0.1-0.1-0.3-0.3-0.5c0-0.1-0.1-0.2-0.2-0.3
					c0-0.1-0.1-0.1-0.1-0.1l-0.3-0.3c-0.1-0.1-0.2-0.1-0.4-0.1h-0.1l-0.2,0.2V-141.4 M-71.8-109c0.4-0.2,0.7-0.3,0.9-0.3
					c0,0,0.2,0,0.4,0c0.1,0,0.2-0.1,0.4-0.1c0.3,0,0.6-0.1,0.8-0.2l0.7-0.3c0.2,0,0.5-0.1,1-0.3c0.9-0.3,1.5-0.7,1.8-1.1l-0.1-0.2
					c0,0.1-0.1,0.2-0.3,0.2l-0.6,0.1c-0.4,0.1-0.8,0.2-1.1,0.3c-0.6,0.3-0.9,0.4-1,0.4c-0.1,0-0.3,0.1-0.5,0.2l-0.7,0.4
					c-0.1,0-0.2,0.1-0.4,0.1c-0.1,0-0.3,0-0.4,0c-0.2,0-0.4,0.1-0.6,0.1c-0.2,0.1-0.5,0.1-0.7,0.2c-0.8,0.2-1.2,0.4-1.3,0.4
					l-0.2,0.1l-0.5,0l-1.1,0.2c-0.2,0.1-0.2,0.2-0.2,0.3c0,0.1,0.2,0.2,0.4,0.2C-73.9-108.3-72.8-108.5-71.8-109 M-88.8-120.4
					l-0.2,0.1c-0.1,0.3,0,0.7,0.1,1.2c0.1,0.3,0.2,0.5,0.4,0.7l0.4,0.3l0.2,0.3c0,0.1,0.2,0.3,0.6,0.6c0.2,0.2,0.4,0.5,0.4,0.7
					c0,0.1,0,0.1,0,0.2v0.3l0.2,0.3c0,0.1,0.1,0.2,0.2,0.4c0.1,0.2,0.2,0.3,0.3,0.4c0-0.1,0-0.4-0.2-0.9c-0.1-0.2-0.1-0.4-0.2-0.7
					c-0.1-0.3-0.2-0.5-0.3-0.6l-0.8-1.3l-0.5-0.6c-0.2-0.2-0.4-0.4-0.4-0.4C-88.7-119.7-88.8-120-88.8-120.4 M-81-116.4
					c0-0.3-0.1-0.5-0.2-0.7l-0.3,0.2c0.1,0.2,0.2,0.6,0.3,1.1v0c0.1,0.5,0.4,0.8,0.8,0.8c0.1,0.3,0,0.7-0.2,1.2l0.1,0.6
					c0,0.1,0.1,0.3,0.1,0.6c0,0.3,0.1,0.5,0.2,0.6c0.1,0.2,0.4,0.4,0.7,0.5c0.6,0.3,1.1,0.5,1.4,0.6c0.2-0.1,0.2-0.2,0.1-0.4
					l-0.3-0.3l-1.1-0.8l-0.3-0.3l-0.2-0.5c-0.2-0.6-0.3-0.9-0.3-0.9c0-0.5,0-0.8-0.1-1.1l-0.5-0.5l-0.1,0
					C-80.9-115.9-81-116.1-81-116.4 M-100.8-122.3c-0.1-0.4-0.2-0.7-0.2-1l0.2-0.4c0.1-0.4-0.1-0.6-0.4-0.6c0,0.1-0.1,0.1-0.3,0.1
					c-0.3,0.4-0.5,0.7-0.5,0.9c0,0.1,0.1,0.3,0.2,0.6c0,0.1,0.1,0.1,0.1,0.2c0.1,0.1,0.1,0.3,0.1,0.3l-0.3,0.9l-0.1,0.5l-0.2,0.4
					c0,0.2,0,0.5,0,0.8c0,0.4,0,0.6-0.1,0.8h0.5c0-0.6,0-1,0.1-1.3l0.1-0.5c0.2-0.6,0.3-1,0.4-1.2c0.1-0.2,0.2-0.4,0.3-0.5
					C-100.8-122.2-100.8-122.2-100.8-122.3 M-106.3-128.6c0.1-0.2,0.1-0.4,0.1-0.6c-0.3,0-0.6,0.1-1,0.6l-0.8,0.7l-0.4,0.4l-0.2,0.4
					l-0.2,0.3c-0.1,0.1-0.1,0.2,0.1,0.3c0.2,0.1,0.3,0.1,0.4,0.1l0.2-0.2c0.1-0.2,0.4-0.4,0.8-0.7c0.1-0.1,0.2-0.2,0.3-0.3
					C-106.8-128-106.5-128.4-106.3-128.6 M-112.1-144.1L-112.1-144.1c-0.1-0.1-0.2-0.1-0.4,0l-0.6,0.8l-0.2,0.4l-0.3,0.3l-0.2,0.4
					c-0.1,0.2-0.2,0.3-0.3,0.3l0.2,0.3c0.1-0.1,0.2-0.2,0.3-0.4l0.6-1l0.1-0.2L-112.1-144.1 M-69.6-172.4v0.5c0,0.4-0.2,0.7-0.5,0.9
					c-0.2,0.2-0.3,0.3-0.3,0.4c0,0,0.2,0,0.4-0.1l0.4-0.3l0.3-0.1l0.1-0.2l0.2-0.4l0.1-0.3c0.3-0.2,0.4-0.4,0.5-0.6c0,0,0-0.1,0-0.1
					c0-0.2-0.1-0.3-0.3-0.3c0,0-0.1,0-0.2,0.1c-0.1,0-0.2,0.1-0.4,0.3L-69.6-172.4 M-65.4-123.7l-0.1-0.5c-0.1-0.3-0.2-0.4-0.4-0.3
					c0.2,0.3,0.3,0.7,0.2,1c-0.1,0.4-0.1,0.6-0.1,0.6l0.2,0.3l0.1,0.6c0,0.2,0.1,0.4,0.3,0.7c0.1,0.3,0.1,0.7-0.1,1.3
					c-0.1,0.5-0.2,0.8-0.2,1h0.4l0.4-1c0.2-0.6,0.3-1,0.3-1.3c-0.2-0.4-0.3-0.7-0.4-0.9c-0.1-0.4-0.1-0.7-0.2-0.8
					C-65.2-123.3-65.3-123.5-65.4-123.7 M-49.5-152.6c-0.1-0.1-0.2-0.2-0.3-0.3l-0.4-0.1l-2.6-0.1v0.1h-0.1v0.1
					C-51.5-152.9-50.5-152.8-49.5-152.6 M-89-120.9L-89-120.9c0-0.3,0-0.6,0-0.8l-0.2,0.1l-0.1,0.6l0.2,0.1L-89-120.9 M-84.7-123.8
					c-0.2,0.1-0.3,0.4-0.5,1c-0.1,0.4-0.4,0.9-0.9,1.6c-0.2,0.5-0.4,1-0.4,1.5c0.2,0.1,0.4,0.1,0.5,0c0-0.2,0.1-0.5,0.2-0.8
					c0.1-0.3,0.2-0.5,0.3-0.7l0.4-0.6c0.1-0.2,0.2-0.4,0.2-0.5L-84.7-123.8 M-49.2-156.4l-0.1-0.5c0-0.2-0.1-0.3-0.2-0.4
					c-0.1,0.1-0.1,0.2,0.1,0.4l0.1,0.4c0.1,0.2,0.2,0.5,0.5,0.8c0.2,0.3,0.3,0.8,0.5,1.4c0,0.1,0.2,0.4,0.5,0.9
					c0.2,0.3,0.3,0.6,0.4,0.9l0.2,0.4l0.9,4c0.1,0.5,0.1,0.8,0.2,0.8c0.3,0.9,0.4,1.5,0.4,1.6l0.3,0c-0.2-0.5-0.4-1.2-0.6-2.1
					l-0.4-2.4l-0.2-0.4c0-0.4-0.1-0.8-0.2-0.9l-0.3-0.8l-0.8-1.4c-0.3-0.5-0.4-0.8-0.5-1.1c-0.1-0.3-0.1-0.5-0.2-0.6l-0.2-0.5
					L-49.2-156.4z"/>
				<path class="st3" d="M-48.7-128.7c0-0.1,0-0.1,0.1-0.2c0.1-0.3,0.3-0.8,0.5-1.4c-0.4,0.7-0.8,1.4-1.1,2.1l-1,1.7L-48.7-128.7
					 M-42.9-140.9c0,0,0,0.1,0,0.1c0,0,0,0.1,0,0.1c0.1,0.2,0.2,0.4,0.3,0.5c0.1,0.2,0.1,0.6,0.1,1l-0.1,0.7
					c0.1-0.2,0.2-0.4,0.3-0.7c0-0.3-0.1-0.6-0.2-0.9l-0.4-0.8C-42.8-140.8-42.8-140.8-42.9-140.9 M-44.2-143.1L-44.2-143.1
					c0,0.3,0.2,0.7,0.4,1.2c0,0.1,0.1,0.2,0.1,0.3l0.1,0c0.2,0,0.4,0,0.5,0.1c0.1,0.1,0.2,0.3,0.3,0.4c0-0.2-0.1-0.4-0.2-0.7
					l-0.1-0.7c-0.1-0.3-0.2-0.5-0.5-0.6C-43.8-143.2-44-143.2-44.2-143.1 M-71.5-109.8c-0.1,0-0.3,0-0.4,0.1l-0.8,0.1
					c-0.3,0.2-0.6,0.4-0.9,0.6l0.2-0.1c0.1,0,0.6-0.2,1.3-0.4c0.2-0.1,0.5-0.1,0.7-0.2C-71.4-109.7-71.5-109.7-71.5-109.8
					 M-48.9-154.4v0.4l0.3,2.1c0,0.7,0.2,1.5,0.5,2.4c0.2,0.5,0.4,1.3,0.8,2.3l1.2,4.1c-0.1,0.1-0.1,0.1-0.2,0.2
					c-0.2,0.4-0.3,0.7-0.4,0.9c0,0.5,0.2,1,0.7,1.3c0,0,0.1,0.1,0.1,0.1c0.1,0.1,0.2,0.2,0.4,0.3c0-0.3,0.1-0.5,0.2-0.6
					c0.1-0.1,0.1-0.1,0.2-0.2c-0.1-0.2-0.3-0.4-0.4-0.8l-0.2-0.6c-0.1,0.3-0.2,0.5-0.3,0.6c0,0,0-0.3,0.1-0.7c0-0.1,0.1-0.2,0.1-0.4
					c0-0.1,0-0.3-0.1-0.5l-0.6-3.2c-0.2-0.8-0.4-1.3-0.4-1.6v-0.1L-48-152c-0.2-0.5-0.3-0.9-0.5-1.3l-0.1-0.1l-0.3-0.7
					C-48.8-154.2-48.8-154.3-48.9-154.4 M-55.4-167.4l-1.5-1.2c-0.4-0.2-0.8-0.5-1.3-0.8c-2.4-2.1-5-3.8-7.9-5.1
					c-0.2-0.1-0.3-0.3-0.5-0.3c-1.3-1-2.5-1.7-3.4-2c-0.3-0.1-1-0.3-2.2-0.5c-1.5-0.2-2.5-0.4-2.8-0.4c-2-0.1-3.5-0.1-4.5-0.2
					c-0.4,0-0.7,0-0.8,0.1c-0.3,0.1-0.4,0.2-0.5,0.4c0,0.1-0.1,0.1-0.1,0.1c0,0,0,0.1,0,0.1c-1.1,0-2.2,0.1-3.5,0.4l1.5-0.6l0.2,0
					l-0.2-0.2c-0.2,0.1-0.7,0.2-1.2,0.3c-0.5,0.1-1.1,0.1-1.7,0.2c-1,0.2-2.3,0.5-3.7,0.9c-1.3,0.4-2.5,0.8-3.5,1.3
					c-1,0.4-1.9,0.8-2.6,1.2c-0.1,0-0.1,0.1-0.2,0.1c-0.5,0.2-1.1,0.6-1.7,1.2c-0.6,0.3-1.3,0.6-2.1,1.1l-0.1-0.2
					c-0.2,0.2-0.4,0.3-0.6,0.4c-0.1,0-0.2,0.1-0.3,0.1c-0.4,0.1-0.8,0.2-1,0.3l-2.9,1.7c-0.4,0.3-0.9,0.5-1.3,0.8
					c-0.1,0-0.2,0.1-0.3,0.3c-0.6,0.4-1.1,0.8-1.5,1.2c-0.1,0-0.1,0-0.2,0.1c-0.2,0.1-0.6,0.5-1.1,1.1c-0.7,0.7-1.2,1.4-1.7,2
					c-0.7,0.9-1.3,2-2,3.2c-0.1,0.2-0.2,0.5-0.3,0.7c-0.2,0.3-0.4,0.7-0.6,1.1l-1.2,2.9c-0.4,1.1-0.8,2.3-1.1,3.6l-0.4,1.9
					c-0.2,0.9-0.3,2-0.3,3.3c-0.2,0.9-0.3,1.7-0.4,2.4l-0.1,0.2c-0.1,1-0.1,2.1-0.1,3.3l0.1,2.1l-0.1-0.3c0-0.1-0.1-0.2-0.2-0.3
					c-0.1-0.1-0.2-0.1-0.3,0.1c0,0.2,0.1,0.6,0.5,1.3c0.1,0.3,0.2,0.9,0.3,2c0.1,0.4,0.2,0.9,0.4,1.6c0,0.1-0.1,0.3-0.1,0.5
					c0,0.3,0.1,0.8,0.2,1.4l0.3,1.2c0.4,1.5,0.7,2.5,0.8,2.8l1.6,3.7c0,0.1,0.1,0.3,0.2,0.4l0.1,0.1c0,0,0.1,0.1,0.1,0.1
					c0.3,0.4,0.6,0.8,1,1.2c0.2,0.4,0.4,0.8,0.7,1.2c0.7,1.1,1.3,2,1.8,2.5c0.2,0.2,0.4,0.4,0.7,0.6c0.2,0.2,0.5,0.5,0.8,0.8
					l0.6,0.5l0.5,0.6c0-0.1-0.1-0.2-0.1-0.3l2.3,1.9l1.1,1c1.6,1.4,3.2,2.3,4.7,2.9c0.5,0.2,0.8,0.3,0.9,0.4
					c0.1,0.1,0.3,0.3,0.5,0.7c0.2,0.3,0.4,0.4,0.6,0.5c-0.2-0.3-0.5-0.8-1.1-1.3c0.4,0.3,1,0.6,1.7,0.8c1.1,0.5,2.2,0.9,3.3,1.3
					l1,0.7c0.4,0.3,0.9,0.6,1.3,0.8s1,0.3,1.6,0.3c0.4,0,1.1,0,2-0.1c0.1,0.1,0.2,0.2,0.3,0.3c0.2,0.2,0.3,0.4,0.5,0.4
					c0.3,0.1,0.6,0.2,0.9,0.2l1.2,0c0.7,0.1,1.8,0.1,3.3,0.2c1.1,0.1,1.8,0.1,2.3,0l2.6-0.7l0.9-0.3c0.1,0.1,0.3,0.1,0.5,0.2
					c0.1,0,0.2,0.1,0.3,0.1c0.9,0.1,2-0.1,3.3-0.7l1-0.4c0,0.1,0,0.1,0.1,0.2c0.2,0.2,0.4,0.3,0.7,0.3c0.1,0,0.4-0.1,0.8-0.3
					c0.4-0.2,1.3-0.6,2.5-1l1-0.4c0.3-0.1,0.7-0.3,1-0.6c1-0.6,2-1.3,3-2c0.1,0,0.3,0,0.6-0.1c0.5-0.2,1.1-0.7,1.7-1.3
					c0.9-0.8,1.6-1.3,2.1-1.8c0.8-0.7,1.4-1.3,1.9-1.8c0.9-1,1.6-2,2.1-3c1.2-1.1,2-1.9,2.5-2.6c0.2-0.3,0.6-0.8,1.1-1.6l0.9-1.4
					c0.4-0.6,0.8-1.3,1.1-1.8l0.7-1.6c0.4-0.8,0.6-1.4,0.7-1.8l0.3-0.9c0.1-0.4,0.2-0.7,0.3-0.9c0.4-0.9,0.8-1.7,1.1-2.3
					c0.2-0.5,0.4-0.9,0.5-1.1c0.3-0.3,0.6-0.6,0.8-0.9c0.1-0.3,0.2-0.5,0.3-0.6l-0.2-0.5v0.1c-0.1,0.2-0.3,0.3-0.4,0.4
					c-0.2,0.1-0.4,0-0.5-0.1c-0.1,0-0.1-0.2-0.2-0.4c0,0.3-0.1,0.5-0.1,0.8c0,0.1-0.1,0.2-0.1,0.3l-0.1,0.1c0,0,0,0.1-0.1,0.1
					L-44-137c-0.1,0.3-0.2,0.9-0.5,1.9l-1.4,3.5l-0.3,1l-1.2,2.3l-0.2,0.7c-0.1,0.3-0.4,0.7-0.8,1.1c-0.5,0.4-0.8,0.8-1,1h-0.1
					l-2.3,2.7l-0.5,0.5l-0.5,0.6c-0.1,0.2-0.3,0.3-0.4,0.5l-1.2,1.3c0,0,0.2-0.3,0.7-0.8c-0.3,0.2-0.6,0.5-0.9,0.8
					c-0.2,0.2-0.3,0.3-0.5,0.3c-0.7,0.8-1.3,1.7-2.1,2.5c-0.8,0.9-1.5,1.6-2.2,2c-0.2,0.1-0.3,0.2-0.5,0.3c-0.3,0.2-0.6,0.5-1,0.8
					c-0.2,0.2-0.5,0.4-0.7,0.6l0.2-0.1l2.2-1.7l0.3-0.2l1.6-1.4l0.5-0.5l0.3-0.4c0.1-0.1,0.2-0.2,0.2-0.3c0.1,0.1,0.1,0,0.1-0.1v0.1
					c-0.1,0.3-0.3,0.7-0.6,0.9l-1.7,1.8l-2.5,2c-0.3,0.1-0.7,0.3-0.9,0.5c-0.9,0.5-1.7,0.9-2.4,1.2l-0.5,0.1c0-0.1,0.1-0.3,0.3-0.4
					l1-0.6c-0.5,0.1-1,0.2-1.7,0.3c-0.3,0.2-0.5,0.3-0.7,0.4c-0.2,0.1-0.5,0.3-0.8,0.4l0.6-0.1c0.2,0,0.3-0.1,0.3-0.2l0.1,0.2
					c-0.3,0.4-1,0.8-1.8,1.1c-0.5,0.2-0.8,0.3-1,0.3l-0.7,0.3c-0.2,0.1-0.4,0.2-0.8,0.2c-0.2,0-0.3,0-0.4,0.1l-1.4,0.7l-1.3,0.3
					c-1.4,0.2-2.8,0.3-4.1,0.3v-0.1c-0.4,0-0.8,0.1-1.3,0.1c-0.1,0-0.2,0-0.3,0c-0.8,0.2-1.4,0.3-1.7,0.3c-0.7,0.1-1.6,0-2.8-0.2
					l-2.5-0.4c-1.8-0.3-3.1-0.7-4-1c-0.4-0.2-0.9-0.4-1.5-0.7c-0.1,0-0.2-0.1-0.3-0.1c-0.7-0.2-1.1-0.4-1.4-0.5
					c-0.4-0.1-0.8-0.3-1.2-0.4c-0.1,0-0.1-0.1-0.2-0.2l-0.3-0.1c-0.1,0-0.1-0.1-0.2-0.1c-0.5-0.2-0.9-0.4-1.3-0.5
					c-0.4-0.2-0.9-0.5-1.5-0.8c0,0,0-0.1-0.1-0.1l-0.1,0c-1.2-0.7-2.7-1.6-4.4-2.8c-0.2-0.1-0.3-0.3-0.3-0.4s0.1-0.2,0.2-0.3
					c0,0-0.1-0.1-0.1-0.1c-1.3-0.8-2.1-1.3-2.6-1.6c-0.3-0.3-0.3-0.4-0.2-0.5c0.1,0,0.2,0.1,0.4,0.2c-0.4-0.3-0.8-0.6-1-0.8
					c-0.1-0.1-0.3-0.2-0.4-0.3c-0.4-0.3-0.7-0.6-1-0.9l-0.1-0.2c-0.1-0.1-0.2-0.1-0.3-0.2c-0.1,0-0.3-0.1-0.4-0.2
					c-0.4-0.2-0.9-0.7-1.3-1.5c-0.8-1.1-1.4-1.9-1.7-2.4c-0.7-1-1.2-1.8-1.6-2.5c-0.3-0.6-0.6-1.4-1-2.7c-0.3-0.8-0.4-1.4-0.5-1.9
					v-0.4l-0.2-0.6l0.2,0.1v-0.6c-0.2-1.2-0.4-2.4-0.5-3.6c0,0-0.1-0.1-0.1-0.1c-0.3-0.8-0.4-1.3-0.5-1.4c0-0.3,0-0.8,0.1-1.4
					c0-0.3,0.1-0.5,0.1-0.7c0-0.5-0.1-0.9-0.1-1.3c0-0.1,0-0.3,0-0.4c-0.1-0.4-0.2-0.9-0.3-1.4c-0.3-1-0.3-1.9-0.1-2.4l1.2-2.4
					c-0.1,0.3-0.1,0.7-0.1,1.1l0.2-0.9v-0.4c0-0.2,0.1-0.4,0.2-0.4h0.1l0.9-4.6c0.1-0.6,0.3-1.2,0.4-1.7c0.2-0.5,0.4-1,0.6-1.5
					c0.1,0,0.2,0,0.4-0.1c0.2-0.4,0.6-1.4,1.2-2.8c0.1-0.3,0.2-0.6,0.4-0.8c0.3-0.8,0.7-1.4,1-1.8l0.9-1c0.1,0,0.2,0,0.4,0
					c0.3-0.1,0.6-0.3,0.9-0.6l3.3-3.1c0.7-0.5,1.4-0.9,2.3-1.4l0.7-0.3c0.1,0,0.2,0,0.3-0.1l0.6-0.4c0.1,0,0.1-0.1,0.2-0.2l0.6-0.3
					c1.4-0.8,2.5-1.4,3.4-2c0.2,0,0.5-0.1,0.8-0.3l2.1-0.8c0.6-0.2,1.5-0.4,2.7-0.7l9.2-1.8c1.7-0.1,2.9-0.2,3.5-0.2l1.7,0.2
					c-0.1-0.4-0.2-0.7-0.4-0.9l1.5,0.2h0.2c0,0,0.1-0.1,0.1-0.1h0.1c0,0.1,0.1,0.3,0.2,0.3c0.2,0.2,0.6,0.4,1.2,0.5
					c0.3,0.1,0.6,0.2,1,0.3c-0.1,0.2,0,0.5,0.3,0.7c0.1,0.1,0.4,0.3,0.9,0.5l2.1,0.8c0.1-0.1,0.1-0.1,0.2-0.1c0.2,0,0.3,0.1,0.3,0.3
					l2.4,0.9c0.6,0.3,1.5,0.7,2.7,1.4c1.6,0.9,2.8,1.6,3.7,2.3c0.3,0.2,0.6,0.4,0.8,0.6c0.8,0.6,1.7,1.4,2.8,2.4
					c0.3,0.3,0.8,0.6,1.4,1.1c0.3,0.7,0.9,1.4,1.5,2.4l2.4,3.1l-0.5-0.7l-0.2-0.6c-0.1-0.2-0.3-0.5-0.4-0.7
					c-0.3-0.4-0.5-0.8-0.6-1.1l-0.3-0.8l-1.4-2.4c-0.1-0.3-0.2-0.5-0.1-0.6c0.1-0.2,0.3-0.3,0.5-0.2c0.2,0,0.3,0.1,0.5,0.3
					c0.8,0.6,1.3,1.3,1.7,1.9l1.2,2.1c0.1,0.2,0.2,0.4,0.4,0.7c0,0.1,0.1,0.2,0.1,0.3l2.1,4l0.3,0.9l1.4,2.9l0.5,2l0.2,1.3
					c0,0.1,0.1,0.2,0.1,0.3c0.1,0.4,0.1,0.6,0.1,0.8l0.3,2.3c0.1,0.1,0.1,0.2,0.2,0.3l0.1-1.3c0-1.2-0.1-2.6-0.4-4.1l-0.4-2.3
					c-0.2-0.9-0.3-1.5-0.4-1.8l-0.9-1.8c-0.2-0.3-0.5-0.6-0.8-0.8c-0.2-0.1-0.4-0.2-0.5-0.3c-0.1-0.4-0.2-0.6-0.2-0.8
					c-0.2-0.6-0.5-1.2-0.9-1.8c0-0.1-0.1-0.2-0.2-0.3c-1-1.7-1.9-2.9-2.5-3.6C-52.5-164.8-53.7-165.9-55.4-167.4 M-47.9-156.9
					c0,0.2,0.1,0.4,0.1,0.7c-0.1-0.3-0.2-0.6-0.3-0.9C-48-157.1-48-157.1-47.9-156.9L-47.9-156.9 M-115.2-135.6c0,0,0.1,0,0.1-0.1
					c0.1,0.7,0.2,1.4,0.4,2.3l-0.7-2.2C-115.4-135.6-115.3-135.6-115.2-135.6z"/>
				<path class="st4" d="M-43.7-141.6L-43.7-141.6c-0.1,0.1-0.1,0.3-0.1,0.3c0.1-0.1,0.3-0.1,0.4,0.1v-0.1c0.2,0.1,0.3,0.1,0.4,0.2
					c0,0,0.1,0.1,0.1,0.3c0.1,0.1,0.1,0.2,0.2,0.3c0-0.1,0-0.1,0-0.1c0-0.1,0-0.1,0-0.1c0-0.1-0.1-0.1-0.1-0.2
					c-0.1-0.2-0.2-0.3-0.3-0.4C-43.4-141.6-43.5-141.6-43.7-141.6 M-112.1-144.1l-0.2-5.1l-0.1-0.6c-0.1-0.3-0.3-0.5-0.5-0.5
					s-0.4,0.2-0.6,0.5v0.4c-0.1,0-0.3,0.1-0.4,0.1c0,0-0.1,0-0.1,0c0,0-0.1,0.1-0.2,0.2h-0.1c-0.1,0.1-0.2,0.2-0.2,0.4v0.4v2.1
					c-0.1-0.4-0.2-0.8-0.2-1.2c0-0.4,0-0.8,0.1-1.1l-1.2,2.4c-0.2,0.6-0.2,1.4,0.1,2.4c0.1,0.6,0.2,1.1,0.3,1.4
					c0.1,0.5,0.1,0.8,0.1,1.1c0,0.2,0,0.4-0.1,0.6c0,0.2-0.1,0.4-0.1,0.7c-0.1,0.6-0.1,1-0.1,1.4c0,0.1,0.2,0.6,0.5,1.4
					c0,0,0,0.1,0.1,0.1c0.3,1,0.5,2,0.5,3.1v0.6v0.6v0.6v0.4c0.1,0.5,0.2,1.1,0.5,1.9c0.4,1.2,0.8,2.1,1,2.7
					c0.3,0.7,0.9,1.6,1.6,2.5c0.4,0.5,1,1.3,1.7,2.4c0.5,0.8,0.9,1.3,1.3,1.5c0.1,0.1,0.2,0.1,0.4,0.2c0.1,0.1,0.2,0.1,0.3,0.2
					c0.3,0.2,0.6,0.5,0.9,0.7c0.8,0.5,1.3,0.9,1.6,1.2c0.1,0.1,0.3,0.3,0.5,0.5c0.1,0,0.2,0.1,0.4,0.2l6.3,4
					c0.1,0.1,0.2,0.2,0.3,0.3c0.2,0,0.4,0.1,0.6,0.2l2.9,1.2c0.1,0,0.1,0.1,0.2,0.1c0-0.1,0.1-0.1,0.1-0.2c0.1-0.2,0.3-0.2,0.5,0
					c0.3,0.1,0.8,0.4,1.4,0.8c0.3,0.1,0.7,0.3,1.3,0.4c0,0,0.1,0.1,0.2,0.1c1.2,0.3,2.5,0.6,3.7,0.8c0.5,0.1,1.7,0.3,3.4,0.7
					c0.6,0,1.2,0.1,2,0.1c1.1,0.1,2.4,0.1,3.9,0.1c0.9,0,2.2-0.1,3.9-0.2c-0.2,0.2-0.4,0.4-0.6,0.5l0.5,0c0.3-0.2,0.6-0.3,0.9-0.6
					l0.8-0.1c0.1,0,0.3-0.1,0.4-0.1c0,0,0.1,0.1,0.2,0.1c0.2,0,0.4-0.1,0.6-0.1c0.1,0,0.3,0,0.4,0l0.3-0.1h0.1l0.7-0.4
					c0.2-0.1,0.4-0.1,0.5-0.2c0,0,0.4-0.1,1-0.4c0.3-0.1,0.6-0.2,1.1-0.3c0.3-0.2,0.5-0.3,0.8-0.4c0.2-0.1,0.4-0.2,0.7-0.4
					c0.7-0.1,1.2-0.1,1.7-0.3l0.9-0.5c0.2-0.2,0.5-0.3,0.8-0.4l0.5-0.2c0.2-0.2,0.5-0.4,0.7-0.6c0.4-0.3,0.7-0.6,1-0.8
					c0.2-0.1,0.3-0.2,0.5-0.3c0.7-0.4,1.4-1.1,2.2-2c0.7-0.8,1.4-1.6,2.1-2.5h-0.1l1.3-1.6l0.6-0.9l0.3-0.7l2.7-3.8l1-1.7
					c0.4-0.7,0.8-1.4,1.1-2.1c0.1-0.3,0.3-0.6,0.4-0.9l0.8-2.1c0-0.4,0.1-0.7,0.3-1.1c0.4-1,0.7-1.8,0.9-2.3
					c0.3-0.9,0.5-1.7,0.6-2.3l0.2-0.4l-0.4-0.4c-0.1-0.1-0.2-0.3-0.2-0.6c-0.1,0.1-0.3,0.1-0.4,0.3c-0.1,0-0.1,0.1-0.2,0.1
					c-0.3,0.3-0.5,0.7-0.8,1.3c-0.5,1.3-1.1,2.6-1.7,3.8l0.1,0.2c0.1,0.3,0.1,0.6-0.1,1l-0.2,0c0-0.1-0.1-0.2-0.3-0.3
					c0,0-0.1-0.1-0.1-0.1c-0.2,0.3-0.4,0.7-0.5,1h-0.1c-0.1,0.1-0.1,0.3-0.2,0.5c-0.5,0.9-1,1.7-1.5,2.6l-2.9,4.6c0,0-0.1,0-0.1,0.1
					c0,0,0,0.1,0,0.1c0.3-0.1,0.5,0,0.6,0.4l0.2,0.8l-0.2,0.1c-0.1-0.2-0.2-0.5-0.3-0.8c-0.2,0.1-0.4-0.1-0.7-0.4
					c-1.1,0.8-2.3,1.7-3.5,2.7c-0.7,0.1-1.4,0.3-2.1,0.8c-0.6,0.3-1.4,0.9-2.5,1.6c-1.1,0.7-2.3,1.3-3.6,1.8
					c0.1,0.2,0.3,0.6,0.8,1.2c0.4,0.4,0.7,0.8,0.8,1.2c-0.2,0-0.3-0.2-0.5-0.4c-0.2-0.3-0.3-0.5-0.4-0.6c-0.4-0.3-0.7-0.5-0.9-0.7
					c0,0-0.1-0.2-0.3-0.4c-0.1,0.1-0.3,0.1-0.4,0.2c-1,0.3-2.6,0.8-4.8,1.3c-1.2,0.3-2.3,0.5-3.1,0.7c-0.1,0-0.3,0-0.4,0
					c-2.1,0.1-3.8,0.2-5.2,0.3l0.5,0.5c0.1,0.2,0.1,0.6,0.1,1.1c0,0.1,0.1,0.4,0.3,0.9l0.2,0.5l0.3,0.3l1.1,0.8l0.3,0.3
					c0.1,0.2,0.1,0.3-0.1,0.4c-0.3-0.1-0.8-0.3-1.4-0.6c-0.3-0.1-0.5-0.3-0.7-0.5c-0.1-0.1-0.1-0.3-0.2-0.6c0-0.3,0-0.5-0.1-0.6
					l-0.1-0.6c0.2-0.5,0.2-0.9,0.2-1.2c-0.4,0-0.6-0.3-0.8-0.8c-0.2,0-0.4,0-0.6,0c0.1-0.1,0.2-0.1,0.2-0.3
					c-0.8-0.1-1.6-0.2-2.3-0.3c-0.1,0-0.1-0.1-0.2-0.1c-0.4-0.2-0.8-0.3-1.1-0.3c-0.2,0-0.4,0-0.6,0.2v0c-0.3-0.1-0.7-0.1-0.9-0.2
					c0.1,0.2,0.1,0.4,0.2,0.7c0.2,0.5,0.2,0.8,0.2,0.9c-0.1-0.1-0.2-0.2-0.3-0.4c-0.1-0.2-0.2-0.4-0.2-0.4l-0.2-0.3v-0.3
					c0,0,0-0.1,0-0.2c-0.9-0.1-1.6-0.3-2.2-0.4c-2.3-0.5-5.4-1.8-9.4-3.8l-2.4-1.2c-0.1,0.2-0.2,0.3-0.3,0.5
					c-0.1,0.1-0.2,0.5-0.4,1.2l-0.1,0.5c-0.1,0.3-0.1,0.7-0.1,1.3h-0.5c0.1-0.2,0.1-0.4,0.1-0.8c0-0.4,0-0.6,0-0.8l0.2-0.4l0.1-0.5
					l0.3-0.9c0-0.1,0-0.2-0.1-0.3l-0.7-0.3c-0.1-0.1-0.1-0.1-0.2-0.2c-0.4-0.3-0.8-0.5-1-0.6c-1.2-1.1-2.5-2.4-3.8-3.7l-0.2-0.2
					c-0.4,0.3-0.7,0.5-0.8,0.7l-0.2,0.2c-0.1,0-0.2,0-0.4-0.1c-0.1-0.1-0.1-0.2-0.1-0.3l0.2-0.3l0.2-0.4l0.4-0.4l-0.8-0.9
					c-0.1-0.1-0.1-0.1-0.2-0.3c0,0,0.1,0,0.2-0.1c0.2-0.1,0.3-0.3,0.3-0.5c0-0.1,0-0.3-0.1-0.7l-2.8-7.8l-0.3-1.3
					c-0.1-0.7-0.2-1.1-0.2-1.1c0,0-0.1-0.6-0.2-1.8L-112.1-144.1l-0.7,0.9l-0.1,0.2l-0.6,1c-0.1,0.2-0.2,0.3-0.3,0.4l-0.2-0.3
					c0.1-0.1,0.2-0.2,0.3-0.3l0.2-0.4l0.3-0.3l0.2-0.4l0.6-0.8C-112.3-144.1-112.2-144.1-112.1-144.1z"/>
				<path class="st5" d="M-65.8-167.1c-0.8-0.4-1.5-0.6-1.9-0.8c-1-0.5-1.7-0.8-2.1-0.9c-0.8-0.3-1.5-0.3-2.2-0.3
					c-1,0.2-1.7,0.7-2.3,1.6c-0.5,0.9-0.6,1.8-0.2,2.7c0.3,0.8,1.3,1.6,2.8,2.6c0.9,0.6,1.6,1.1,2.4,1.6c1.3,1,2.3,1.9,3,2.7
					c1.4,1.6,2.7,3.7,3.8,6.3c0.7,1.6,1.2,2.7,1.5,3.3c0.8,1.1,1.7,1.9,2.8,2.3c1.4,0.4,2.6,0.2,3.8-0.6c1.1-0.9,1.6-2,1.5-3.5
					c-0.1-0.6-0.6-1.8-1.5-3.4c-0.2-0.4-0.8-1.5-1.5-3.2c-0.6-1.3-1.2-2.4-1.7-3.1c-0.1-0.2-0.3-0.4-0.5-0.7
					c-0.7-0.9-1.7-1.9-2.9-3.1c-1.2-1.2-2.2-2-3-2.5C-64.4-166.4-65-166.7-65.8-167.1z"/>
			</g>
		</g>
	</g>
</g>
</svg>
