<svg id="Layer_1" data-name="Layer 1" xmlns="http://www.w3.org/2000/svg" xmlns:xlink="http://www.w3.org/1999/xlink" viewBox="0 0 150 56.4"><defs><clipPath id="clip-path"><path d="M32.43,53h-.61a5.77,5.77,0,0,1,4.82-3.41h.62A5.82,5.82,0,0,0,32.43,53Z" style="fill:none"/></clipPath><clipPath id="clip-path-2"><path d="M49.28,53.49H47.37c0-.15-.35-2.88-1.57-3.42h1.91C48.92,50.61,49.26,53.34,49.28,53.49Z" style="fill:none"/></clipPath><clipPath id="clip-path-3"><path id="SVGID" d="M80.46,53.49H78.84c0-.15-.67-2.88-3-3.42h1.62C79.79,50.61,80.43,53.34,80.46,53.49Z" style="fill:none"/></clipPath><clipPath id="clip-path-4"><path id="SVGID-2" data-name="SVGID" d="M64.28,53.49H63.11a5.2,5.2,0,0,1,4.11-3.42h1.17A5.22,5.22,0,0,0,64.28,53.49Z" style="fill:none"/></clipPath><clipPath id="clip-path-5"><path id="SVGID-3" data-name="SVGID" d="M100.07,53.87H98.45c0-.14.67-2.88,3-3.41h1.62C100.74,51,100.1,53.73,100.07,53.87Z" style="fill:none"/></clipPath><clipPath id="clip-path-6"><path id="SVGID-4" data-name="SVGID" d="M116.26,53.87h-1.17A5.23,5.23,0,0,0,111,50.46h1.18A5.19,5.19,0,0,1,116.26,53.87Z" style="fill:none"/></clipPath><linearGradient id="linear-gradient" x1="104.89" y1="11.82" x2="104.89" y2="7.25" gradientUnits="userSpaceOnUse"><stop offset="0" stop-color="#fff"/><stop offset="1"/></linearGradient><clipPath id="clip-path-7"><path d="M148.59,53.87H148a5.79,5.79,0,0,0-4.82-3.41h.61A5.8,5.8,0,0,1,148.59,53.87Z" style="fill:none"/></clipPath><clipPath id="clip-path-8"><path d="M133,53.49h-1.9c0-.15.35-2.88,1.57-3.42h1.9C133.39,50.61,133.05,53.34,133,53.49Z" style="fill:none"/></clipPath></defs><g style="isolation:isolate"><g style="isolation:isolate"><g style="clip-path:url(#clip-path)"><g style="isolation:isolate"><path d="M32.43,53h-.61l0-.1h.62a.37.37,0,0,1,0,.1" style="fill:#9c8566"/><path d="M32.47,52.88h-.62l.13-.27h.62l-.13.27" style="fill:#978062"/><path d="M32.6,52.61H32l.21-.35h.62c-.09.13-.15.25-.21.35" style="fill:#927c5f"/><path d="M32.81,52.26h-.62a4.28,4.28,0,0,1,.3-.43h.62a4.28,4.28,0,0,0-.3.43" style="fill:#8d785c"/><path d="M33.11,51.83h-.62a6.54,6.54,0,0,1,.45-.5h.62a4,4,0,0,0-.45.5" style="fill:#887459"/><path d="M33.56,51.33h-.62a6.38,6.38,0,0,1,3.7-1.76h.62a6.35,6.35,0,0,0-3.7,1.76" style="fill:#836f55"/></g></g></g><rect x="36.64" y="35.57" width="0.62" height="14" style="fill:#bfa37d"/><path d="M36.64,35.57v14A5.77,5.77,0,0,0,31.82,53l.41-13.13Z" style="fill:#c5a880"/></g><g style="isolation:isolate"><g style="isolation:isolate"><g style="clip-path:url(#clip-path-2)"><g style="isolation:isolate"><path d="M49.28,53.49H47.37a.85.85,0,0,0,0-.13h1.9a.7.7,0,0,0,0,.13" style="fill:#a18969"/><path d="M49.26,53.36h-1.9c0-.06,0-.14,0-.24h1.9c0,.1,0,.18,0,.24" style="fill:#9c8566"/><path d="M49.22,53.12h-1.9q0-.13-.06-.3h1.9a2,2,0,0,1,.06.3" style="fill:#978062"/><path d="M49.16,52.82h-1.9c0-.11,0-.22-.07-.35h1.9c0,.13,0,.24.07.35" style="fill:#927c5f"/><path d="M49.09,52.47h-1.9c0-.12-.07-.25-.1-.38H49c0,.13.07.26.1.38" style="fill:#8d785c"/><path d="M49,52.09h-1.9l-.15-.47h1.9c.06.16.1.31.15.47" style="fill:#887459"/><path d="M48.84,51.62h-1.9a2.58,2.58,0,0,0-1.14-1.55h1.91a2.57,2.57,0,0,1,1.13,1.55" style="fill:#836f55"/></g></g></g><rect x="45.8" y="36.08" width="1.9" height="13.99" style="fill:#c5a880"/><path d="M49.14,40.36l.14,13.13c0-.15-.36-2.88-1.57-3.42v-14Z" style="fill:#bfa37d"/></g><g style="isolation:isolate"><polygon points="47.71 36.08 45.8 36.08 45.8 36.07 47.7 36.07 47.71 36.08" style="fill:#927c5f"/><polygon points="47.7 36.07 47.71 36.07 47.71 36.08 47.7 36.07" style="fill:#7e6b52"/></g><path d="M35.77,51s-.07-19,0-28.18c0-20.76,9.3-20.72,9.3-20.72h0s9.3,0,9.3,20.72c.07,9.16,0,28.18,0,28.18Z" style="fill:#9b8a8a"/><path d="M35.77,50.93s-.07-19,0-28.18C35.77,2.05,45.07,2,45.07,2h0S41,3.53,41.37,22.75c.07,9.16,0,28.18,0,28.18Z" style="fill:#2d2d2d;opacity:0.1"/><path d="M45.14,17.81C45.07,25,49,27.09,49,27.09h0s3.09-2.33,3-9.47c0-15.74-7-15.57-7-15.57Z" style="fill:#fff;opacity:0.1"/><path d="M38.25,50.74h2.67a7.33,7.33,0,0,1,2.23-.67v-14l-4.56,4.29Z" style="opacity:0.2"/><g style="isolation:isolate"><polygon points="42.98 36.07 44.89 36.07 43.45 40.36 41.55 40.36 42.98 36.07" style="fill:#ceb087"/><polygon points="41.55 40.36 43.45 40.36 43.32 53.49 41.42 53.49 41.55 40.36" style="fill:#c6a981"/><path d="M44.89,36.07v14c-1.22.54-1.55,3.27-1.57,3.42l.13-13.13Z" style="fill:#bfa37d"/></g><g style="isolation:isolate"><rect x="53.18" y="36.07" width="0.62" height="0.01" style="fill:#bfa37d"/><polygon points="53.17 36.07 53.18 36.07 53.18 36.08 53.17 36.07" style="fill:#7e6b52"/></g><g style="isolation:isolate"><polygon points="53.18 36.08 53.8 36.08 58.21 40.36 57.59 40.36 53.18 36.08" style="fill:#c3a67f"/><polygon points="57.59 40.36 58.21 40.36 58.63 53.49 58.01 53.49 57.59 40.36" style="fill:#c1a57e"/><path d="M57.59,40.36,58,53.49a5.84,5.84,0,0,0-4.83-3.42v-14Z" style="fill:#c5a880"/></g><path d="M16.64.76,24.3,6.2c.07,13.78,0,44.4,0,44.4H5.7S5.63,20,5.7,6.2L13.36.76A2.82,2.82,0,0,1,16.64.76Z" style="fill:#9b8a8a"/><path d="M5.7,6.2c-.07,13.77,0,44.37,0,44.37h5.6s.07-29.65,0-43.55a1.48,1.48,0,0,1,.21-.76l3.56-6-1.2.23Z" style="fill:#2d2d2d;opacity:0.1"/><path d="M15.07.24c3,1.64,6.26,5.7,6.26,5.7a1.49,1.49,0,0,1,.47,1.23C21,16.68,19,21.63,19,21.63h0A28.78,28.78,0,0,1,15.55,6.46Z" style="fill:#fff;opacity:0.1"/><path d="M8.63,50.83h2.78a8.37,8.37,0,0,1,2.67-.76v-14L9,40.36Z" style="opacity:0.2"/><g style="isolation:isolate"><rect x="14" y="36.14" width="2" height="4.28" style="fill:#e0bf93"/><rect x="14" y="40.42" width="2" height="13.13" style="fill:#dbbb8f"/></g><path d="M1,40.74l4.64-4.27v14c-3.94.53-5,3.27-5.08,3.41Z" style="fill:#daba8e"/><polygon points="5.67 36.46 5.67 36.47 5.67 36.46 5.67 36.46" style="fill:#7e6b52"/><path d="M24.33,36.29,29,40.58l.44,13.12a6.24,6.24,0,0,0-5.08-3.41v-14Z" style="fill:#fbd6a4"/><g style="isolation:isolate"><g style="isolation:isolate"><g style="clip-path:url(#clip-path-3)"><g style="isolation:isolate"><path d="M80.46,53.49H78.84a.36.36,0,0,0,0-.11h1.62a.36.36,0,0,1,0,.11" style="fill:#8d785c"/><path d="M80.43,53.38H78.81a3.76,3.76,0,0,0-.2-.61h1.62a5.13,5.13,0,0,1,.2.61" style="fill:#887459"/><path d="M80.23,52.77H78.61a4.15,4.15,0,0,0-2.75-2.7h1.62a4.17,4.17,0,0,1,2.75,2.7" style="fill:#836f55"/></g></g></g><rect x="75.86" y="36.07" width="1.62" height="14" style="fill:#aa916f"/><path d="M80.2,40.36l.26,13.13c0-.15-.67-2.88-3-3.42v-14Z" style="fill:#e2c194"/></g><g style="isolation:isolate"><polygon points="77.48 36.07 75.86 36.07 75.85 36.06 77.47 36.06 77.48 36.07" style="fill:#857257"/><polygon points="77.47 36.06 77.48 36.06 77.48 36.07 77.47 36.06" style="fill:#7e6b52"/></g><g style="isolation:isolate"><g style="isolation:isolate"><g style="clip-path:url(#clip-path-4)"><g style="isolation:isolate"><path d="M64.28,53.49H63.11v0h1.17v0" style="fill:#b59a76"/><path d="M64.29,53.46H63.12a.82.82,0,0,1,.05-.14h1.17l0,.14" style="fill:#b09673"/><path d="M64.34,53.32H63.17l.07-.18h1.18l-.08.18" style="fill:#ab9270"/><path d="M64.42,53.14H63.24c0-.06.06-.13.1-.2h1.17c0,.07-.07.14-.09.2" style="fill:#a68d6c"/><path d="M64.51,52.94H63.34a1.71,1.71,0,0,1,.12-.23h1.17l-.12.23" style="fill:#a18969"/><path d="M64.63,52.71H63.46l.14-.25h1.18c-.06.09-.1.17-.15.25" style="fill:#9c8566"/><path d="M64.78,52.46H63.6l.17-.26H65l-.17.26" style="fill:#978062"/><path d="M65,52.2H63.77l.21-.27h1.18a2.47,2.47,0,0,0-.21.27" style="fill:#927c5f"/><path d="M65.16,51.93H64a3.74,3.74,0,0,1,.27-.31h1.18a3.74,3.74,0,0,0-.27.31" style="fill:#8d785c"/><path d="M65.43,51.62H64.25c.11-.12.24-.24.37-.36H65.8a4.25,4.25,0,0,0-.37.36" style="fill:#887459"/><path d="M65.8,51.26H64.62a5.25,5.25,0,0,1,2.6-1.19h1.17a5.21,5.21,0,0,0-2.59,1.19" style="fill:#836f55"/></g></g></g><rect x="67.22" y="36.06" width="1.18" height="14" style="fill:#e2c194"/><path d="M67.22,36.06v14a5.2,5.2,0,0,0-4.11,3.42l.35-13.13Z" style="fill:#aa916f"/></g><path d="M65.7,50.84s-.07-19,0-28.17S75,1.94,75,1.94h0s9.23,11.57,9.3,20.73,0,28.17,0,28.17Z" style="fill:#9b8a8a"/><path d="M65.78,50.84s-.07-19,0-28.17,9.3-20.73,9.3-20.73h0s-3.77,11.57-3.7,20.73,0,28.17,0,28.17Z" style="fill:#2d2d2d;opacity:0.1"/><path d="M67.55,50.83h2a4.69,4.69,0,0,1,1.89-.76v-14l-3.58,4.29Z" style="opacity:0.2"/><path d="M79.44,50.83h1.2a1.5,1.5,0,0,1,.53-.37v-14l-1.62,4.29Z" style="opacity:0.2"/><path d="M79.05,27.33s-4-2.13-3.9-9.25-.07-10.69-.07-10.69V1.94s6.92,8.83,7,16-3,9.44-3,9.44Z" style="fill:#fff;opacity:0.1"/><g style="isolation:isolate"><polygon points="81.06 36.29 82.24 36.29 85.99 40.57 84.81 40.57 81.06 36.29" style="fill:#e0bf92"/><polygon points="84.81 40.57 85.99 40.57 86.35 53.7 85.17 53.7 84.81 40.57" style="fill:#e4c295"/><path d="M81.06,36.29l3.75,4.28.36,13.13a5.21,5.21,0,0,0-4.11-3.41Z" style="fill:#aa916f"/></g><g style="isolation:isolate"><polygon points="71.51 36.13 73.13 36.13 70.4 40.42 68.78 40.42 71.51 36.13" style="fill:#b69b77"/><polygon points="68.78 40.42 70.4 40.42 70.14 53.55 68.53 53.55 68.78 40.42" style="fill:#ab9270"/><path d="M73.13,36.14v14c-2.32.53-2.95,3.27-3,3.41l.26-13.13Z" style="fill:#e2c194"/></g><g style="isolation:isolate"><g style="isolation:isolate"><g style="clip-path:url(#clip-path-5)"><g style="isolation:isolate"><path d="M100.07,53.87H98.45v0h1.62v0" style="fill:#c4a780"/><path d="M100.08,53.83H98.46l0-.11h1.62l0,.11" style="fill:#bfa37d"/><path d="M100.11,53.72H98.49s0-.09,0-.14h1.62a1,1,0,0,0,0,.14" style="fill:#ba9e79"/><path d="M100.15,53.58H98.53s0-.1,0-.16h1.62a1.42,1.42,0,0,0,0,.16" style="fill:#b59a76"/><path d="M100.2,53.42H98.58a1.34,1.34,0,0,1,.07-.18h1.61l-.06.18" style="fill:#b09673"/><path d="M100.26,53.24H98.65a1.34,1.34,0,0,1,.07-.18h1.62l-.08.18" style="fill:#ab9270"/><path d="M100.34,53.06H98.72l.08-.2h1.62a1.67,1.67,0,0,0-.08.2" style="fill:#a68d6c"/><path d="M100.42,52.86H98.8c0-.06.07-.13.1-.2h1.62l-.1.2" style="fill:#a18969"/><path d="M100.52,52.66H98.9a2.12,2.12,0,0,1,.11-.21h1.62a2.12,2.12,0,0,0-.11.21" style="fill:#9c8566"/><path d="M100.63,52.45H99l.13-.22h1.61l-.12.22" style="fill:#978062"/><path d="M100.75,52.23H99.14a2.22,2.22,0,0,1,.15-.23h1.62l-.16.23" style="fill:#927c5f"/><path d="M100.91,52H99.29c.06-.08.12-.17.19-.25h1.61c-.06.08-.13.17-.18.25" style="fill:#8d785c"/><path d="M101.09,51.75H99.48a1.87,1.87,0,0,1,.26-.3h1.62a2.61,2.61,0,0,0-.27.3" style="fill:#887459"/><path d="M101.36,51.45H99.74a3.36,3.36,0,0,1,1.69-1h1.62a3.36,3.36,0,0,0-1.69,1" style="fill:#836f55"/></g></g></g><rect x="101.43" y="36.46" width="1.62" height="14" style="fill:#edca9b"/><path d="M101.43,36.46v14c-2.31.53-3,3.27-3,3.41l.26-13.12Z" style="fill:#8e795d"/></g><g style="isolation:isolate"><g style="isolation:isolate"><g style="clip-path:url(#clip-path-6)"><g style="isolation:isolate"><path d="M116.26,53.87h-1.17A5.23,5.23,0,0,0,111,50.46h1.18a5.19,5.19,0,0,1,4.1,3.41" style="fill:#836f55"/></g></g></g><rect x="110.98" y="36.46" width="1.18" height="14" style="fill:#8e795d"/><path d="M112.16,36.46l3.75,4.28.35,13.13a5.19,5.19,0,0,0-4.1-3.41Z" style="fill:#edca9b"/></g><path d="M114.3,19c.07,10.35,0,31.85,0,31.85H95.7s-.07-21.5,0-31.85" style="fill:#9b8a8a"/><path d="M101.23,22.67c.07,9.15,0,28.17,0,28.17h-5.6s-.07-19,0-28.17" style="fill:#2d2d2d;opacity:0.1"/><path d="M104.93,50.83h1.59a2.59,2.59,0,0,1,1-.54v-14l-2.45,4.29Z" style="opacity:0.2"/><path d="M114.12,11.86a2.3,2.3,0,0,1,0-4.6l.19,0v-.9a5.06,5.06,0,0,0-5.06-5.06h-8.5a5.06,5.06,0,0,0-5.06,5.06v.88a2.3,2.3,0,0,1,0,4.59V22.67h18.62V11.84Z" style="fill:#9b8a8a"/><path d="M102.37,9.53c0-1.21-.46-2.26-1.14-2.26h0A28.31,28.31,0,0,1,101,3.32c.13-1.83.66-2,.79-2-3.93-.14-6,2.32-6,5.17v.78a2.28,2.28,0,1,1,0,4.55V22.67h5.54V11.8C101.74,11.82,102.37,10.75,102.37,9.53Z" style="fill:#2d2d2d;opacity:0.1"/><path d="M110.31,21l1.15-9.15c-.87,0-1.58-1-1.58-2.28s1.58-2.29,2.45-2.29V6.47a5.06,5.06,0,0,0-5.07-5.15c.09,0,.46.17.55,2,.06,1.21-.19,4-.19,4h0c-.48,0-.79,1.05-.79,2.26s.43,2.29.79,2.27l.93,8.39C108.64,20.46,109.58,24.86,110.31,21Z" style="fill:#fff;opacity:0.1"/><g style="opacity:0.15"><path d="M98,9.54a2.29,2.29,0,0,1-2.11,2.28h18.06a2.29,2.29,0,0,1,.18-4.57H95.69A2.29,2.29,0,0,1,98,9.54Z" style="fill:url(#linear-gradient)"/></g><g style="isolation:isolate"><polygon points="98.17 36.46 99.35 36.46 95.6 40.74 94.43 40.74 98.17 36.46" style="fill:#9c8566"/><polygon points="94.43 40.74 95.6 40.74 95.25 53.87 94.07 53.87 94.43 40.74" style="fill:#8e795d"/><path d="M99.35,36.46v14a5.23,5.23,0,0,0-4.11,3.41l.36-13.13Z" style="fill:#edca9b"/></g><g style="isolation:isolate"><polygon points="107.49 36.29 109.1 36.29 111.83 40.57 110.22 40.57 107.49 36.29" style="fill:#edca9b"/><polygon points="110.22 40.57 111.83 40.57 112.09 53.7 110.47 53.7 110.22 40.57" style="fill:#efcc9c"/><path d="M107.49,36.29l2.73,4.28.25,13.13c0-.14-.67-2.88-3-3.41Z" style="fill:#8e795d"/></g><g style="isolation:isolate"><g style="isolation:isolate"><g style="clip-path:url(#clip-path-7)"><g style="isolation:isolate"><path d="M148.59,53.87H148a5.79,5.79,0,0,0-4.82-3.41h.61a5.8,5.8,0,0,1,4.83,3.41" style="fill:#836f55"/></g></g></g><rect x="143.15" y="36.46" width="0.62" height="14" style="fill:#7e6b52"/><path d="M143.76,36.46l4.41,4.28.42,13.13a5.8,5.8,0,0,0-4.83-3.41Z" style="fill:#e8c698"/></g><g style="isolation:isolate"><g style="isolation:isolate"><g style="clip-path:url(#clip-path-8)"><g style="isolation:isolate"><polyline points="133.03 53.49 131.13 53.49 131.13 53.48 133.03 53.48 133.03 53.49" style="fill:#c9ab83"/><path d="M133,53.48h-1.9s0,0,0-.09h1.91a.64.64,0,0,1,0,.09" style="fill:#c4a780"/><path d="M133.05,53.39h-1.91s0-.07,0-.11h1.9s0,.08,0,.11" style="fill:#bfa37d"/><path d="M133.06,53.28h-1.9c0-.05,0-.09,0-.15h1.91c0,.06,0,.1,0,.15" style="fill:#ba9e79"/><path d="M133.09,53.13h-1.91l0-.16h1.9a1,1,0,0,0,0,.16" style="fill:#b59a76"/><path d="M133.11,53h-1.9a1.36,1.36,0,0,1,0-.17h1.9c0,.06,0,.12,0,.17" style="fill:#b09673"/><path d="M133.15,52.8h-1.9l0-.19h1.91a1.62,1.62,0,0,0,0,.19" style="fill:#ab9270"/><path d="M133.19,52.61h-1.91c0-.06,0-.12.05-.19h1.9c0,.07,0,.13,0,.19" style="fill:#a68d6c"/><path d="M133.23,52.42h-1.9a1.33,1.33,0,0,1,0-.19h1.9c0,.06,0,.13-.05.19" style="fill:#a18969"/><path d="M133.28,52.23h-1.9l.06-.21h1.9l-.06.21" style="fill:#9c8566"/><path d="M133.34,52h-1.9l.06-.21h1.91a1.72,1.72,0,0,0-.07.21" style="fill:#978062"/><path d="M133.41,51.81H131.5c0-.08.06-.16.08-.23h1.91a1.55,1.55,0,0,0-.08.23" style="fill:#927c5f"/><path d="M133.49,51.58h-1.91l.1-.25h1.91a1.86,1.86,0,0,0-.1.25" style="fill:#8d785c"/><path d="M133.59,51.33h-1.91l.14-.3h1.9c-.05.1-.09.2-.13.3" style="fill:#887459"/><path d="M133.72,51h-1.9a2,2,0,0,1,.88-1h1.9a2,2,0,0,0-.88,1" style="fill:#836f55"/></g></g></g><rect x="132.7" y="36.07" width="1.9" height="14" style="fill:#e8c698"/><path d="M131.27,40.36l1.43-4.29v14c-1.22.54-1.55,3.27-1.57,3.42Z" style="fill:#7e6b52"/></g><g style="isolation:isolate"><polygon points="134.6 36.07 132.7 36.07 132.7 36.06 134.6 36.06 134.6 36.07" style="fill:#a18a69"/><polygon points="132.7 36.06 132.7 36.07 132.7 36.06 132.7 36.06" style="fill:#7e6b52"/></g><path d="M134.2,6a2.24,2.24,0,1,1,1.6,0v4.18l3.57,3.41c.46,3,.76,3.78,2.25,5.69l2.65,3.42h0c.07,9.15,0,28.17,0,28.17H125.7s-.07-19,0-28.17l2.67-3.42c1.49-1.91,1.79-2.67,2.25-5.69l3.58-3.41Z" style="fill:#9b8a8a"/><path d="M132,50.87h2.25a4.88,4.88,0,0,1,1.6-.58v-14l-3.58,4.29Z" style="opacity:0.2"/><path d="M133.28,3.88a2.24,2.24,0,0,1,2-2.21,2.48,2.48,0,0,0-.27,0A2.24,2.24,0,0,0,134.2,6v4.23l-3.58,3.35c-.46,3-.76,3.78-2.25,5.69l-2.59,3.32h-.08c-.08,9.15,0,28.17,0,28.17h5.59s.07-18.94,0-28.12a28.58,28.58,0,0,0,2.1-5.63,14.06,14.06,0,0,0,.12-3.54l1.13-3.64V6.09l.33,0,.27,0A2.24,2.24,0,0,1,133.28,3.88Z" style="fill:#2d2d2d;opacity:0.1"/><path d="M136.53,3.88A2.11,2.11,0,0,0,135,1.67a1.52,1.52,0,0,1,.21,0,2,2,0,0,1,1.72,2.24A2.3,2.3,0,0,1,135.81,6v4.23l2.23,3.3a12.14,12.14,0,0,0,2,6l1.53,3.18s0,4.48-1.12,4.48c-.84,0-2.35-4.48-2.35-4.48A34.16,34.16,0,0,1,136.44,17a17.85,17.85,0,0,1-.09-3.54l-.88-3.64V6.09a1.09,1.09,0,0,1-.26,0l-.21,0A2.12,2.12,0,0,0,136.53,3.88Z" style="fill:#fff;opacity:0.1"/><g style="isolation:isolate"><rect x="126.02" y="36.29" width="0.62" height="0.01" style="fill:#7e6b52"/><polygon points="126.65 36.29 126.64 36.3 126.64 36.29 126.65 36.29" style="fill:#7e6b52"/></g><g style="isolation:isolate"><polygon points="126.02 36.3 126.64 36.3 122.23 40.57 121.61 40.57 126.02 36.3" style="fill:#857257"/><polygon points="121.61 40.57 122.23 40.57 121.81 53.7 121.19 53.7 121.61 40.57" style="fill:#7e6b52"/><path d="M122.23,40.57l4.41-4.27v14a5.84,5.84,0,0,0-4.83,3.41Z" style="fill:#e8c698"/></g><g style="isolation:isolate"><polygon points="135.81 36.3 137.71 36.3 139.14 40.57 137.24 40.57 135.81 36.3" style="fill:#ebc99a"/><polygon points="137.24 40.57 139.14 40.57 139.28 53.7 137.37 53.7 137.24 40.57" style="fill:#eac799"/><path d="M137.24,40.57l.13,13.13c0-.14-.35-2.88-1.57-3.41v-14Z" style="fill:#7e6b52"/></g><g style="isolation:isolate"><rect x="135.8" y="36.29" width="1.9" height="0.01" style="fill:#e8c698"/><polygon points="135.8 36.29 135.81 36.29 135.81 36.3 135.8 36.29" style="fill:#7e6b52"/></g></svg>