<?xml version="1.0" encoding="utf-8"?>
<!-- Generator: Adobe Illustrator 25.2.3, SVG Export Plug-In . SVG Version: 6.00 Build 0)  -->
<svg version="1.1" xmlns="http://www.w3.org/2000/svg" xmlns:xlink="http://www.w3.org/1999/xlink" x="0px" y="0px"
	 viewBox="0 0 150 56" enable-background="new 0 0 150 56" xml:space="preserve">
<g id="Layer_1">
	<g>
		<rect x="30" y="0" display="none" fill="#D8E7BF" width="30" height="56.4"/>
		<g>
			<g>
				<g enable-background="new    ">
					<g enable-background="new    ">
						<defs>
							<path id="SVGID_1_" enable-background="new    " d="M32.433,52.983l-0.618,0c0.054-0.144,1.079-2.88,4.828-3.411l0.618,0
								C33.512,50.103,32.487,52.839,32.433,52.983z"/>
						</defs>
						<clipPath id="SVGID_2_">
							<use xlink:href="#SVGID_1_"  overflow="visible"/>
						</clipPath>
						<g clip-path="url(#SVGID_2_)" enable-background="new    ">
							<path fill="#9C8566" d="M32.433,52.983h-0.618c0.005-0.013,0.018-0.047,0.04-0.099h0.618
								C32.451,52.936,32.438,52.97,32.433,52.983"/>
							<path fill="#978062" d="M32.473,52.884h-0.618c0.028-0.065,0.07-0.158,0.129-0.271h0.618
								C32.543,52.726,32.501,52.819,32.473,52.884"/>
							<path fill="#927C5F" d="M32.602,52.612h-0.618c0.054-0.103,0.122-0.224,0.206-0.356h0.618
								C32.724,52.389,32.656,52.509,32.602,52.612"/>
							<path fill="#8D785C" d="M32.808,52.256H32.19c0.083-0.131,0.182-0.273,0.298-0.422h0.618
								C32.99,51.983,32.891,52.125,32.808,52.256"/>
							<path fill="#887459" d="M33.106,51.834h-0.618c0.128-0.164,0.277-0.336,0.451-0.509h0.618
								C33.383,51.498,33.234,51.67,33.106,51.834"/>
							<path fill="#836F55" d="M33.557,51.325h-0.618c0.738-0.739,1.909-1.499,3.704-1.753h0.618
								C35.466,49.826,34.295,50.586,33.557,51.325"/>
						</g>
					</g>
					<g>
						<rect x="36.643" y="35.568" fill="#BFA37D" width="0.618" height="14.004"/>
					</g>
					<g>
						<path fill="#C5A880" d="M36.643,35.568v14.004c-3.749,0.531-4.774,3.267-4.828,3.411l0.419-13.131L36.643,35.568z"/>
					</g>
				</g>
			</g>
		</g>
		<g>
			<g>
				<g enable-background="new    ">
					<g enable-background="new    ">
						<defs>
							<path id="SVGID_3_" enable-background="new    " d="M49.275,53.487l-1.902,0c-0.018-0.144-0.353-2.88-1.568-3.42l1.902,0
								C48.922,50.607,49.258,53.343,49.275,53.487z"/>
						</defs>
						<clipPath id="SVGID_4_">
							<use xlink:href="#SVGID_3_"  overflow="visible"/>
						</clipPath>
						<g clip-path="url(#SVGID_4_)" enable-background="new    ">
							<path fill="#A18969" d="M49.275,53.487h-1.902c-0.002-0.015-0.007-0.06-0.017-0.128h1.902
								C49.268,53.427,49.273,53.472,49.275,53.487"/>
							<path fill="#9C8566" d="M49.258,53.359h-1.902c-0.009-0.062-0.021-0.144-0.038-0.241h1.902
								C49.237,53.216,49.249,53.297,49.258,53.359"/>
							<path fill="#978062" d="M49.22,53.119h-1.902c-0.015-0.089-0.034-0.19-0.056-0.301h1.902
								C49.187,52.929,49.205,53.03,49.22,53.119"/>
							<path fill="#927C5F" d="M49.165,52.818h-1.902c-0.022-0.107-0.047-0.223-0.076-0.345h1.902
								C49.118,52.595,49.143,52.711,49.165,52.818"/>
							<path fill="#8D785C" d="M49.089,52.473h-1.902c-0.03-0.125-0.063-0.255-0.102-0.388h1.902
								C49.026,52.218,49.059,52.349,49.089,52.473"/>
							<path fill="#887459" d="M48.987,52.085h-1.902c-0.043-0.151-0.092-0.306-0.148-0.46h1.902
								C48.895,51.778,48.944,51.933,48.987,52.085"/>
							<path fill="#836F55" d="M48.84,51.625h-1.902c-0.242-0.672-0.604-1.323-1.133-1.558h1.902
								C48.235,50.302,48.598,50.953,48.84,51.625"/>
						</g>
					</g>
					<g>
						<rect x="45.805" y="36.08" fill="#C5A880" width="1.902" height="13.987"/>
					</g>
					<g>
						<path fill="#BFA37D" d="M49.139,40.356l0.136,13.131c-0.018-0.144-0.353-2.88-1.568-3.42V36.08L49.139,40.356z"/>
					</g>
				</g>
				<g enable-background="new    ">
					<g>
						<polygon fill="#927C5F" points="47.707,36.08 45.805,36.08 45.802,36.072 47.704,36.072 						"/>
					</g>
					<g>
						<polygon fill="#7E6B52" points="47.704,36.072 47.707,36.072 47.707,36.08 						"/>
					</g>
				</g>
			</g>
		</g>
		<path fill="#9B8A8A" d="M46.643,1.096l7.654,5.441c0.071,13.774,0,44.4,0,44.4l-18.594,0.001c0,0-0.071-30.627,0-44.402
			l7.654-5.441C44.341,0.397,45.659,0.397,46.643,1.096z"/>
		<path opacity="0.2" d="M38.251,50.742h2.669c0.615-0.304,1.347-0.55,2.229-0.672V36.068l-4.556,4.287L38.251,50.742z"/>
		<path opacity="0.1" fill="#2D2D2D" d="M35.703,6.537c-0.071,13.764,0,44.37,0,44.37l5.594-0.001c0,0,0.07-29.647,0.002-43.55
			c-0.001-0.269,0.07-0.525,0.207-0.757l3.564-6.026l-1.198,0.232L35.703,6.537z"/>
		<g>
			<g>
				<g enable-background="new    ">
					<g>
						<polygon fill="#CEB087" points="42.984,36.072 44.886,36.072 43.454,40.356 41.552,40.356 						"/>
					</g>
					<g>
						<polygon fill="#C6A981" points="41.552,40.356 43.454,40.356 43.318,53.487 41.416,53.487 						"/>
					</g>
					<g>
						<path fill="#BFA37D" d="M44.886,36.072v13.995c-1.215,0.54-1.551,3.276-1.568,3.42l0.136-13.131L44.886,36.072z"/>
					</g>
				</g>
			</g>
		</g>
		<g>
			<g>
				<g enable-background="new    ">
					<g>
						<rect x="53.181" y="36.072" fill="#BFA37D" width="0.618" height="0.008"/>
					</g>
					<g>
						<polygon fill="#7E6B52" points="53.172,36.072 53.181,36.072 53.181,36.08 						"/>
					</g>
				</g>
				<g enable-background="new    ">
					<g>
						<polygon fill="#C3A67F" points="53.181,36.08 53.799,36.08 58.207,40.356 57.589,40.356 						"/>
					</g>
					<g>
						<polygon fill="#C1A57E" points="57.589,40.356 58.207,40.356 58.627,53.487 58.009,53.487 						"/>
					</g>
					<g>
						<path fill="#C5A880" d="M57.589,40.356l0.419,13.131c-0.054-0.144-1.087-2.88-4.828-3.42V36.08L57.589,40.356z"/>
					</g>
				</g>
			</g>
		</g>
		<path opacity="0.1" fill="#FFFFFF" d="M45.07,0.574c2.967,1.641,6.255,5.703,6.255,5.703c0.341,0.311,0.519,0.772,0.478,1.231
			c-0.85,9.504-2.83,14.454-2.83,14.454l0,0c0,0-3.731-5.94-3.424-15.163L45.07,0.574z"/>
	</g>
	<g>
		<path display="none" fill="#9B8A8A" d="M5.703,50.843c0,0-0.071-19.02,0-28.177C5.773,13.511,15,1.942,15,1.942l0,0
			c0,0,9.227,11.568,9.297,20.724c0.071,9.156,0,28.176,0,28.176L5.703,50.843z"/>
		<path fill="#9B8A8A" d="M5.703,50.742c0,0-0.071-19.02,0-28.177C5.703,1.806,15,1.842,15,1.842l0,0c0,0,9.297-0.036,9.297,20.724
			c0.071,9.156,0,28.176,0,28.176L5.703,50.742z"/>
		<path opacity="0.2" d="M8.633,50.825h2.775c0.719-0.343,1.6-0.622,2.669-0.755V36.068l-5.062,4.287L8.633,50.825z"/>
		<path opacity="0.1" fill="#2D2D2D" d="M5.703,50.724c0,0-0.071-19.02,0-28.177C5.703,1.842,15,1.823,15,1.823l0,0
			c0,0-4.057,1.505-3.703,20.724c0.071,9.156,0,28.176,0,28.176L5.703,50.724z"/>
		<path opacity="0.1" fill="#FFFFFF" d="M15.071,17.606c-0.071,7.142,3.902,9.281,3.902,9.281l0,0c0,0,3.086-2.333,3.015-9.476
			C21.988,1.678,15,1.842,15,1.842L15.071,17.606z"/>
		<g>
			<g>
				<g enable-background="new    ">
					<g>
						<rect x="13.999" y="36.135" fill="#E0BF93" width="2" height="4.284"/>
					</g>
					<g>
						<rect x="13.999" y="40.419" fill="#DBBB8F" width="2" height="13.131"/>
					</g>
				</g>
			</g>
		</g>
		<g>
			<g>
				<g>
					<path fill="#DABA8E" d="M1.031,40.743l4.635-4.276v13.996c-3.933,0.531-5.019,3.267-5.076,3.411L1.031,40.743z"/>
				</g>
				<g>
					<polygon fill="#7E6B52" points="5.675,36.459 5.666,36.467 5.666,36.459 					"/>
				</g>
			</g>
		</g>
		<path fill="#FBD6A4" d="M24.329,36.287l4.639,4.288l0.438,13.128c0,0-1.138-2.878-5.076-3.413L24.329,36.287L24.329,36.287z"/>
	</g>
	<g>
		<rect x="60" y="0" display="none" fill="#C0D8E8" width="30" height="56.4"/>
		<g>
			<g>
				<g enable-background="new    ">
					<g enable-background="new    ">
						<defs>
							<path id="SVGID_5_" enable-background="new    " d="M80.46,53.487l-1.618,0c-0.034-0.144-0.672-2.88-2.984-3.42l1.618,0
								C79.788,50.607,80.426,53.343,80.46,53.487z"/>
						</defs>
						<clipPath id="SVGID_6_">
							<use xlink:href="#SVGID_5_"  overflow="visible"/>
						</clipPath>
						<g clip-path="url(#SVGID_6_)" enable-background="new    ">
							<path fill="#8D785C" d="M80.46,53.487h-1.618c-0.003-0.014-0.012-0.052-0.028-0.111h1.618
								C80.448,53.435,80.457,53.473,80.46,53.487"/>
							<path fill="#887459" d="M80.432,53.376h-1.618c-0.033-0.125-0.097-0.342-0.202-0.607h1.618
								C80.335,53.034,80.399,53.251,80.432,53.376"/>
							<path fill="#836F55" d="M80.231,52.769h-1.618c-0.349-0.889-1.147-2.326-2.754-2.702h1.618
								C79.084,50.442,79.882,51.879,80.231,52.769"/>
						</g>
					</g>
					<g>
						<rect x="75.858" y="36.071" fill="#AA916F" width="1.618" height="13.996"/>
					</g>
					<g>
						<path fill="#E2C194" d="M80.201,40.356l0.259,13.131c-0.034-0.144-0.672-2.88-2.984-3.42V36.071L80.201,40.356z"/>
					</g>
				</g>
				<g enable-background="new    ">
					<g>
						<polygon fill="#857257" points="77.476,36.071 75.858,36.071 75.853,36.063 77.471,36.063 						"/>
					</g>
					<g>
						<polygon fill="#7E6B52" points="77.471,36.063 77.476,36.063 77.476,36.071 						"/>
					</g>
				</g>
			</g>
		</g>
		<g>
			<g>
				<g enable-background="new    ">
					<g enable-background="new    ">
						<defs>
							<path id="SVGID_7_" enable-background="new    " d="M64.285,53.487l-1.176,0c0.046-0.144,0.917-2.88,4.106-3.42l1.176,0
								C65.202,50.607,64.33,53.343,64.285,53.487z"/>
						</defs>
						<clipPath id="SVGID_8_">
							<use xlink:href="#SVGID_7_"  overflow="visible"/>
						</clipPath>
						<g clip-path="url(#SVGID_8_)" enable-background="new    ">
							<path fill="#B59A76" d="M64.285,53.487h-1.176c0.002-0.006,0.005-0.016,0.01-0.031h1.176
								C64.29,53.471,64.286,53.481,64.285,53.487"/>
							<path fill="#B09673" d="M64.295,53.456h-1.176c0.01-0.029,0.025-0.074,0.048-0.133h1.176
								C64.32,53.382,64.304,53.427,64.295,53.456"/>
							<path fill="#AB9270" d="M64.342,53.323h-1.176c0.019-0.05,0.044-0.11,0.073-0.179h1.176
								C64.386,53.213,64.362,53.273,64.342,53.323"/>
							<path fill="#A68D6C" d="M64.416,53.145H63.24c0.027-0.063,0.059-0.133,0.097-0.208h1.176
								C64.475,53.012,64.443,53.082,64.416,53.145"/>
							<path fill="#A18969" d="M64.512,52.937h-1.176c0.035-0.071,0.075-0.148,0.12-0.229h1.176
								C64.587,52.789,64.547,52.865,64.512,52.937"/>
							<path fill="#9C8566" d="M64.632,52.708h-1.176c0.043-0.078,0.091-0.16,0.144-0.245h1.176
								C64.723,52.548,64.675,52.63,64.632,52.708"/>
							<path fill="#978062" d="M64.776,52.463H63.6c0.053-0.084,0.11-0.171,0.173-0.26h1.176
								C64.886,52.292,64.829,52.379,64.776,52.463"/>
							<path fill="#927C5F" d="M64.949,52.204h-1.176c0.064-0.091,0.134-0.183,0.209-0.277h1.176
								C65.082,52.02,65.013,52.113,64.949,52.204"/>
							<path fill="#8D785C" d="M65.158,51.927h-1.176c0.082-0.102,0.171-0.205,0.268-0.307h1.176
								C65.329,51.722,65.24,51.825,65.158,51.927"/>
							<path fill="#887459" d="M65.426,51.62H64.25c0.114-0.12,0.238-0.24,0.372-0.357h1.176C65.663,51.38,65.539,51.5,65.426,51.62
								"/>
							<path fill="#836F55" d="M65.798,51.263h-1.176c0.615-0.533,1.457-1.004,2.593-1.196h1.176
								C67.255,50.259,66.413,50.73,65.798,51.263"/>
						</g>
					</g>
					<g>
						<rect x="67.215" y="36.063" fill="#E2C194" width="1.176" height="14.004"/>
					</g>
					<g>
						<path fill="#AA916F" d="M67.215,36.063v14.004c-3.189,0.54-4.061,3.276-4.106,3.42l0.349-13.131L67.215,36.063z"/>
					</g>
				</g>
			</g>
		</g>
		<path fill="#9B8A8A" d="M65.703,50.843c0,0-0.071-19.02,0-28.177c0.07-9.154,9.297-20.724,9.297-20.724l0,0
			c0,0,9.227,11.568,9.297,20.724c0.07,9.156,0,28.176,0,28.176L65.703,50.843z"/>
		<path opacity="0.1" fill="#2D2D2D" d="M65.784,50.843c0,0-0.071-19.02,0-28.177c0.07-9.154,9.297-20.724,9.297-20.724l0,0
			c0,0-3.773,11.568-3.703,20.724c0.071,9.156,0,28.176,0,28.176L65.784,50.843z"/>
		<path opacity="0.2" d="M67.545,50.825h1.964c0.509-0.343,1.132-0.622,1.889-0.755V36.069l-3.582,4.286L67.545,50.825z"/>
		<path opacity="0.2" d="M79.436,50.825h1.201c0.158-0.158,0.332-0.286,0.528-0.363v-14l-1.611,4.285L79.436,50.825z"/>
		<path opacity="0.1" fill="#FFFFFF" d="M79.055,27.333c0,0-3.974-2.132-3.902-9.251c0.069-7.118-0.071-10.691-0.071-10.691V1.942
			c0,0,6.918,8.827,6.988,15.946C82.141,25.008,79.055,27.333,79.055,27.333L79.055,27.333z"/>
		<g>
			<g>
				<g enable-background="new    ">
					<g>
						<polygon fill="#E0BF92" points="81.064,36.288 82.24,36.288 85.989,40.572 84.814,40.572 						"/>
					</g>
					<g>
						<polygon fill="#E4C295" points="84.814,40.572 85.989,40.572 86.346,53.703 85.17,53.703 						"/>
					</g>
					<g>
						<path fill="#AA916F" d="M81.064,36.288l3.75,4.284l0.357,13.131c-0.046-0.144-0.925-2.88-4.106-3.411V36.288z"/>
					</g>
				</g>
			</g>
		</g>
		<g>
			<g>
				<g enable-background="new    ">
					<g>
						<polygon fill="#B69B77" points="71.509,36.135 73.127,36.135 70.397,40.419 68.779,40.419 						"/>
					</g>
					<g>
						<polygon fill="#AB9270" points="68.779,40.419 70.397,40.419 70.143,53.55 68.525,53.55 						"/>
					</g>
					<g>
						<path fill="#E2C194" d="M73.127,36.135v14.004c-2.317,0.531-2.95,3.267-2.984,3.411l0.254-13.131L73.127,36.135z"/>
					</g>
				</g>
			</g>
		</g>
	</g>
	<g>
		<polyline display="none" fill="#FBD6A4" points="120,0 120,56.4 90,56.4 90,0 		"/>
		<g>
			<g>
				<g enable-background="new    ">
					<g enable-background="new    ">
						<defs>
							<path id="SVGID_9_" enable-background="new    " d="M100.068,53.874l-1.618,0c0.034-0.144,0.672-2.88,2.984-3.411l1.618,0
								C100.74,50.994,100.102,53.73,100.068,53.874z"/>
						</defs>
						<clipPath id="SVGID_10_">
							<use xlink:href="#SVGID_9_"  overflow="visible"/>
						</clipPath>
						<g clip-path="url(#SVGID_10_)" enable-background="new    ">
							<path fill="#C4A780" d="M100.068,53.874H98.45c0.002-0.008,0.006-0.024,0.011-0.048h1.618
								C100.074,53.85,100.07,53.866,100.068,53.874"/>
							<path fill="#BFA37D" d="M100.08,53.826h-1.618c0.007-0.027,0.016-0.064,0.029-0.109h1.618
								C100.096,53.763,100.086,53.799,100.08,53.826"/>
							<path fill="#BA9E79" d="M100.108,53.718H98.49c0.011-0.04,0.025-0.087,0.041-0.14h1.618
								C100.133,53.631,100.12,53.678,100.108,53.718"/>
							<path fill="#B59A76" d="M100.15,53.578h-1.618c0.015-0.049,0.033-0.103,0.052-0.161h1.618
								C100.182,53.475,100.165,53.529,100.15,53.578"/>
							<path fill="#B09673" d="M100.202,53.417h-1.618c0.019-0.055,0.04-0.114,0.063-0.175h1.618
								C100.241,53.303,100.221,53.362,100.202,53.417"/>
							<path fill="#AB9270" d="M100.265,53.242h-1.618c0.022-0.059,0.047-0.121,0.073-0.186h1.618
								C100.311,53.12,100.287,53.183,100.265,53.242"/>
							<path fill="#A68D6C" d="M100.338,53.056H98.72c0.026-0.063,0.054-0.127,0.084-0.194h1.618
								C100.391,52.929,100.364,52.994,100.338,53.056"/>
							<path fill="#A18969" d="M100.422,52.862h-1.618c0.03-0.066,0.062-0.133,0.096-0.201l1.618,0
								C100.483,52.729,100.451,52.797,100.422,52.862"/>
							<path fill="#9C8566" d="M100.517,52.661l-1.618,0c0.034-0.069,0.071-0.138,0.11-0.209h1.618
								C100.588,52.523,100.551,52.592,100.517,52.661"/>
							<path fill="#978062" d="M100.627,52.452h-1.618c0.04-0.072,0.082-0.145,0.127-0.219h1.618
								C100.709,52.307,100.667,52.38,100.627,52.452"/>
							<path fill="#927C5F" d="M100.754,52.233h-1.618c0.047-0.077,0.098-0.155,0.151-0.233h1.618
								C100.852,52.078,100.801,52.156,100.754,52.233"/>
							<path fill="#8D785C" d="M100.905,52.001h-1.618c0.059-0.086,0.122-0.171,0.189-0.256h1.618
								C101.028,51.829,100.965,51.915,100.905,52.001"/>
							<path fill="#887459" d="M101.095,51.745h-1.618c0.081-0.102,0.168-0.202,0.261-0.299h1.618
								C101.263,51.543,101.176,51.643,101.095,51.745"/>
							<path fill="#836F55" d="M101.356,51.446h-1.618c0.426-0.444,0.981-0.819,1.696-0.983h1.618
								C102.337,50.627,101.782,51.002,101.356,51.446"/>
						</g>
					</g>
					<g>
						<rect x="101.434" y="36.459" fill="#EDCA9B" width="1.618" height="14.004"/>
					</g>
					<g>
						<path fill="#8E795D" d="M101.434,36.459v14.004c-2.312,0.531-2.95,3.267-2.984,3.411l0.259-13.122L101.434,36.459z"/>
					</g>
				</g>
			</g>
		</g>
		<g>
			<g>
				<g enable-background="new    ">
					<g enable-background="new    ">
						<defs>
							<path id="SVGID_11_" enable-background="new    " d="M116.262,53.874l-1.176,0c-0.046-0.144-0.925-2.88-4.106-3.411l1.176,0
								C115.337,50.994,116.216,53.73,116.262,53.874z"/>
						</defs>
						<clipPath id="SVGID_12_">
							<use xlink:href="#SVGID_11_"  overflow="visible"/>
						</clipPath>
						<g clip-path="url(#SVGID_12_)" enable-background="new    ">
							<path fill="#836F55" d="M116.262,53.874h-1.176c-0.046-0.144-0.925-2.88-4.106-3.411h1.176
								C115.337,50.994,116.216,53.73,116.262,53.874"/>
						</g>
					</g>
					<g>
						<rect x="110.98" y="36.459" fill="#8E795D" width="1.176" height="14.004"/>
					</g>
					<g>
						<path fill="#EDCA9B" d="M112.156,36.459l3.75,4.284l0.357,13.131c-0.046-0.144-0.925-2.88-4.106-3.411V36.459z"/>
					</g>
				</g>
			</g>
		</g>
		<path fill="#9B8A8A" d="M114.297,18.986c0.07,10.352,0,31.856,0,31.856l-18.594,0.001c0,0-0.071-21.505,0-31.857"/>
		<path opacity="0.1" fill="#2D2D2D" d="M101.226,22.666c0.071,9.156,0,28.176,0,28.176l-5.594,0.001c0,0-0.071-19.02,0-28.177"/>
		<path opacity="0.2" d="M104.929,50.825h1.589c0.299-0.24,0.643-0.432,1.046-0.535V36.289l-2.453,4.286L104.929,50.825z"/>
		<path fill="#9B8A8A" d="M114.115,11.855c-1.269,0-2.298-1.029-2.298-2.298c0-1.269,1.029-2.298,2.298-2.298
			c0.068,0,0.131,0.014,0.198,0.02V6.383c0-2.795-2.266-5.062-5.062-5.062h-8.502c-2.795,0-5.062,2.266-5.062,5.062v0.878
			c1.262,0.009,2.282,1.033,2.282,2.296c0,1.264-1.02,2.288-2.282,2.296v10.812h18.625V11.835
			C114.247,11.841,114.183,11.855,114.115,11.855z"/>
		<path opacity="0.1" fill="#2D2D2D" d="M102.373,9.534c0-1.215-0.461-2.269-1.147-2.265V7.265c0,0-0.367-2.736-0.278-3.946
			c0.134-1.832,0.663-1.988,0.795-1.998c-3.935-0.14-6.055,2.319-6.055,5.164v0.78c1.258,0,2.278,1.02,2.278,2.278
			c0,1.258-1.02,2.278-2.278,2.278v10.845h5.538V11.799C101.742,11.821,102.373,10.749,102.373,9.534z"/>
		<path opacity="0.1" fill="#FFFFFF" d="M110.311,20.969l1.146-9.148c-0.872,0-1.578-1.02-1.578-2.278
			c0-1.258,1.578-2.296,2.449-2.296v-0.78c0-2.845-2.339-5.285-5.066-5.146c0.091,0.01,0.457,0.167,0.551,1.998
			c0.061,1.21-0.193,3.946-0.193,3.946v0.003c-0.475-0.003-0.795,1.05-0.795,2.265s0.437,2.287,0.795,2.265l0.93,8.388
			C108.645,20.457,109.584,24.855,110.311,20.969z"/>
		<g opacity="0.15">
			<linearGradient id="SVGID_13_" gradientUnits="userSpaceOnUse" x1="104.8931" y1="11.8211" x2="104.8931" y2="7.2467">
				<stop  offset="1.118836e-07" style="stop-color:#FFFFFF"/>
				<stop  offset="1" style="stop-color:#000000"/>
			</linearGradient>
			<path fill="url(#SVGID_13_)" d="M97.969,9.543c0,1.205-0.931,2.181-2.111,2.278h18.058c-1.175-0.102-2.1-1.077-2.1-2.278
				c0-1.264,1.021-2.288,2.282-2.296H95.687C96.949,7.255,97.969,8.279,97.969,9.543z"/>
		</g>
		<g>
			<g>
				<g enable-background="new    ">
					<g>
						<polygon fill="#9C8566" points="98.175,36.459 99.351,36.459 95.601,40.743 94.426,40.743 						"/>
					</g>
					<g>
						<polygon fill="#8E795D" points="94.426,40.743 95.601,40.743 95.245,53.874 94.069,53.874 						"/>
					</g>
					<g>
						<path fill="#EDCA9B" d="M99.351,36.459v14.004c-3.182,0.531-4.06,3.267-4.106,3.411l0.357-13.131L99.351,36.459z"/>
					</g>
				</g>
			</g>
		</g>
		<g>
			<g>
				<g enable-background="new    ">
					<g>
						<polygon fill="#EDCA9B" points="107.486,36.288 109.104,36.288 111.834,40.572 110.216,40.572 						"/>
					</g>
					<g>
						<polygon fill="#EFCC9C" points="110.216,40.572 111.834,40.572 112.088,53.703 110.47,53.703 						"/>
					</g>
					<g>
						<path fill="#8E795D" d="M107.486,36.288l2.73,4.284l0.254,13.131c-0.033-0.144-0.667-2.88-2.984-3.411V36.288z"/>
					</g>
				</g>
			</g>
		</g>
	</g>
	<g>
		<rect x="120" y="0" display="none" fill="#E9BEBD" width="30" height="56.4"/>
		<g>
			<g>
				<g enable-background="new    ">
					<g enable-background="new    ">
						<defs>
							<path id="SVGID_14_" enable-background="new    " d="M148.591,53.874l-0.618,0c-0.054-0.144-1.079-2.88-4.828-3.411l0.618,0
								C147.512,50.994,148.537,53.73,148.591,53.874z"/>
						</defs>
						<clipPath id="SVGID_15_">
							<use xlink:href="#SVGID_14_"  overflow="visible"/>
						</clipPath>
						<g clip-path="url(#SVGID_15_)" enable-background="new    ">
							<path fill="#836F55" d="M148.591,53.874h-0.618c-0.054-0.144-1.079-2.88-4.828-3.411h0.618
								C147.512,50.994,148.537,53.73,148.591,53.874"/>
						</g>
					</g>
					<g>
						<rect x="143.145" y="36.459" fill="#7E6B52" width="0.618" height="14.004"/>
					</g>
					<g>
						<path fill="#E8C698" d="M143.763,36.459l4.408,4.284l0.419,13.131c-0.054-0.144-1.079-2.88-4.828-3.411V36.459z"/>
					</g>
				</g>
			</g>
		</g>
		<g>
			<g>
				<g enable-background="new    ">
					<g enable-background="new    ">
						<defs>
							<path id="SVGID_16_" enable-background="new    " d="M133.033,53.487l-1.902,0c0.018-0.144,0.353-2.88,1.568-3.42l1.902,0
								C133.386,50.607,133.051,53.343,133.033,53.487z"/>
						</defs>
						<clipPath id="SVGID_17_">
							<use xlink:href="#SVGID_16_"  overflow="visible"/>
						</clipPath>
						<g clip-path="url(#SVGID_17_)" enable-background="new    ">
							<polyline fill="#C9AB83" points="133.033,53.487 131.131,53.487 131.132,53.478 133.034,53.478 133.033,53.487 							"/>
							<path fill="#C4A780" d="M133.034,53.478h-1.902c0.002-0.016,0.006-0.045,0.011-0.086h1.902
								C133.04,53.433,133.036,53.462,133.034,53.478"/>
							<path fill="#BFA37D" d="M133.045,53.393h-1.902c0.004-0.032,0.01-0.071,0.017-0.117h1.902
								C133.055,53.321,133.05,53.361,133.045,53.393"/>
							<path fill="#BA9E79" d="M133.062,53.276h-1.902c0.007-0.043,0.014-0.09,0.023-0.143h1.902
								C133.076,53.185,133.069,53.233,133.062,53.276"/>
							<path fill="#B59A76" d="M133.085,53.133h-1.902c0.008-0.05,0.018-0.104,0.029-0.161h1.902
								C133.103,53.029,133.094,53.083,133.085,53.133"/>
							<path fill="#B09673" d="M133.114,52.971h-1.902c0.01-0.055,0.021-0.113,0.034-0.174h1.902
								C133.135,52.858,133.124,52.917,133.114,52.971"/>
							<path fill="#AB9270" d="M133.148,52.798h-1.902c0.012-0.059,0.025-0.12,0.039-0.183h1.902
								C133.173,52.678,133.16,52.739,133.148,52.798"/>
							<path fill="#A68D6C" d="M133.187,52.614h-1.902c0.014-0.062,0.029-0.126,0.044-0.191h1.902
								C133.215,52.489,133.2,52.552,133.187,52.614"/>
							<path fill="#A18969" d="M133.231,52.423h-1.902c0.016-0.065,0.033-0.131,0.051-0.198h1.902
								C133.264,52.293,133.247,52.359,133.231,52.423"/>
							<path fill="#9C8566" d="M133.282,52.225h-1.902c0.018-0.068,0.037-0.136,0.058-0.206h1.902
								C133.319,52.089,133.3,52.158,133.282,52.225"/>
							<path fill="#978062" d="M133.34,52.02h-1.902c0.021-0.071,0.043-0.143,0.067-0.215h1.902
								C133.383,51.877,133.361,51.949,133.34,52.02"/>
							<path fill="#927C5F" d="M133.407,51.805h-1.902c0.025-0.076,0.052-0.153,0.08-0.229h1.902
								C133.458,51.652,133.432,51.729,133.407,51.805"/>
							<path fill="#8D785C" d="M133.486,51.576h-1.902c0.031-0.084,0.064-0.168,0.099-0.251h1.902
								C133.551,51.408,133.517,51.492,133.486,51.576"/>
							<path fill="#887459" d="M133.586,51.325h-1.902c0.042-0.1,0.088-0.198,0.136-0.292h1.902
								C133.673,51.127,133.628,51.225,133.586,51.325"/>
							<path fill="#836F55" d="M133.722,51.033h-1.902c0.223-0.435,0.51-0.802,0.88-0.966h1.902
								C134.232,50.231,133.944,50.598,133.722,51.033"/>
						</g>
					</g>
					<g>
						<rect x="132.699" y="36.071" fill="#E8C698" width="1.902" height="13.996"/>
					</g>
					<g>
						<path fill="#7E6B52" d="M131.267,40.356l1.432-4.285v13.996c-1.215,0.54-1.551,3.276-1.568,3.42L131.267,40.356z"/>
					</g>
				</g>
				<g enable-background="new    ">
					<g>
						<polygon fill="#A18A69" points="134.601,36.071 132.699,36.071 132.702,36.063 134.604,36.063 						"/>
					</g>
					<g>
						<polygon fill="#7E6B52" points="132.702,36.063 132.699,36.071 132.699,36.063 						"/>
					</g>
				</g>
			</g>
		</g>
		<path fill="#9B8A8A" d="M134.204,5.97c-0.843-0.322-1.445-1.132-1.445-2.089c0-1.238,1.003-2.241,2.241-2.241
			s2.241,1.003,2.241,2.241c0,0.956-0.602,1.767-1.445,2.089v4.183l3.572,3.41c0.463,3.019,0.762,3.78,2.248,5.69l2.655,3.413h0.026
			c0.07,9.156,0,28.176,0,28.176l-18.594,0.001c0,0-0.071-19.021,0-28.177l2.663-3.413c1.49-1.91,1.79-2.671,2.255-5.69l3.583-3.41
			L134.204,5.97z"/>
		<path opacity="0.2" d="M131.979,50.866h2.255c0.45-0.259,0.976-0.467,1.594-0.576V36.289l-3.582,4.286L131.979,50.866z"/>
		<path opacity="0.1" fill="#2D2D2D" d="M133.276,3.882c0-1.144,0.86-2.077,1.967-2.213c-0.09-0.011-0.178-0.028-0.271-0.028
			c-1.222,0-2.213,1.003-2.213,2.241c0,0.963,0.603,1.777,1.445,2.094v4.238l-3.583,3.35c-0.464,3.019-0.764,3.78-2.255,5.69
			l-2.584,3.312h-0.086c-0.07,9.156,0,28.177,0,28.177l5.594-0.001c0,0,0.072-18.945,0-28.121c0.124-0.234,1.254-2.415,2.099-5.628
			c0.325-1.236,0.121-3.54,0.121-3.54l1.127-3.643v-3.72c0.11,0.017,0.22,0.034,0.335,0.034c0.093,0,0.181-0.016,0.271-0.028
			C134.136,5.959,133.276,5.026,133.276,3.882z"/>
		<path opacity="0.1" fill="#FFFFFF" d="M136.528,3.882c0-1.144-0.668-2.077-1.528-2.213c0.07-0.011,0.138-0.028,0.21-0.028
			c0.95,0,1.72,1.003,1.72,2.241c0,0.963-0.468,1.777-1.123,2.094v4.238l2.23,3.294c0.361,3.019,0.838,4.072,1.996,5.981
			l1.525,3.177c0,0-0.028,4.481-1.118,4.481c-0.839,0-2.35-4.481-2.35-4.481s-0.955-2.273-1.65-5.674
			c-0.253-1.236-0.094-3.54-0.094-3.54l-0.876-3.643v-3.72c-0.086,0.017-0.171,0.034-0.26,0.034c-0.072,0-0.141-0.016-0.21-0.028
			C135.86,5.959,136.528,5.026,136.528,3.882z"/>
		<g>
			<g>
				<g enable-background="new    ">
					<g>
						<rect x="126.022" y="36.288" fill="#7E6B52" width="0.618" height="0.008"/>
					</g>
					<g>
						<polygon fill="#7E6B52" points="126.649,36.288 126.64,36.296 126.64,36.288 						"/>
					</g>
				</g>
				<g enable-background="new    ">
					<g>
						<polygon fill="#857257" points="126.022,36.296 126.64,36.296 122.232,40.572 121.614,40.572 						"/>
					</g>
					<g>
						<polygon fill="#7E6B52" points="121.614,40.572 122.232,40.572 121.812,53.703 121.194,53.703 						"/>
					</g>
					<g>
						<path fill="#E8C698" d="M122.232,40.572l4.408-4.276v13.996c-3.741,0.531-4.773,3.267-4.828,3.411L122.232,40.572z"/>
					</g>
				</g>
			</g>
		</g>
		<g>
			<g>
				<g enable-background="new    ">
					<g>
						<polygon fill="#EBC99A" points="135.805,36.296 137.707,36.296 139.139,40.572 137.237,40.572 						"/>
					</g>
					<g>
						<polygon fill="#EAC799" points="137.237,40.572 139.139,40.572 139.275,53.703 137.373,53.703 						"/>
					</g>
					<g>
						<path fill="#7E6B52" d="M137.237,40.572l0.136,13.131c-0.018-0.144-0.353-2.88-1.568-3.411V36.296L137.237,40.572z"/>
					</g>
				</g>
				<g enable-background="new    ">
					<g>
						<rect x="135.805" y="36.288" fill="#E8C698" width="1.902" height="0.008"/>
					</g>
					<g>
						<polygon fill="#7E6B52" points="135.802,36.288 135.805,36.288 135.805,36.296 						"/>
					</g>
				</g>
			</g>
		</g>
	</g>
</g>
<g id="Layer_3" display="none">
	<rect x="0.078" y="0" display="inline" opacity="0.58" fill="#79493A" width="149.922" height="28"/>
</g>
</svg>
