<?xml version="1.0" encoding="utf-8"?>
<!-- Generator: Adobe Illustrator 22.1.0, SVG Export Plug-In . SVG Version: 6.00 Build 0)  -->
<svg version="1.1" id="Layer_1" xmlns="http://www.w3.org/2000/svg" xmlns:xlink="http://www.w3.org/1999/xlink" x="0px" y="0px"
	 viewBox="0 0 510 162" style="enable-background:new 0 0 510 162;" xml:space="preserve">
<style type="text/css">
	.st0{fill:#FFFFFF;}
	.st1{fill:#EEEEEE;}
	.st2{fill:#999999;}
	.st3{fill:#D5D5D5;}
	.st4{fill:#AAAAAA;}
	.st5{fill:url(#SVGID_1_);}
	.st6{fill:url(#SVGID_2_);}
	.st7{fill-opacity:0.102;}
	.st8{fill:#ECECEC;}
	.st9{fill:#C6C6C6;}
	.st10{fill:#CCCCCC;}
</style>
<g>
	<g>
		<path class="st0" d="M210.3,67.1c-3.8,0-7,1.3-9.8,4c-2.7,2.7-4,5.9-4,9.8s1.3,7,4,9.7c2.7,2.7,6,4,9.8,4c3.8,0,7-1.4,9.7-4
			c2.7-2.7,4-5.9,4-9.7s-1.3-7.1-4-9.8C217.3,68.4,214.1,67.1,210.3,67.1 M210.3,65.1c4.4,0,8.1,1.5,11.2,4.6
			c3.1,3.1,4.6,6.8,4.6,11.1c0,4.3-1.5,8-4.6,11.1l-0.1,0c-3.1,3.1-6.8,4.6-11.1,4.6c-4.4,0-8.1-1.5-11.1-4.6
			c-3.1-3.1-4.6-6.8-4.6-11.1c0-4.3,1.5-8.1,4.6-11.1C202.2,66.6,205.9,65.1,210.3,65.1"/>
		<path class="st1" d="M210.3,67.1c3.8,0,7,1.3,9.7,4c2.7,2.7,4,5.9,4,9.8s-1.3,7-4,9.7c-2.7,2.7-5.9,4-9.7,4c-3.8,0-7-1.4-9.8-4
			c-2.7-2.7-4-5.9-4-9.7s1.3-7.1,4-9.8C203.2,68.4,206.5,67.1,210.3,67.1"/>
		<path class="st2" d="M210.3,65.1c-4.3,0-8,1.5-11.1,4.6c-3.1,3.1-4.6,6.8-4.6,11.1c0,4.4,1.5,8.1,4.6,11.1
			c3.1,3.1,6.8,4.6,11.1,4.6c4.3,0,8-1.5,11.1-4.6l0.1,0c3.1-3.1,4.6-6.8,4.6-11.1c0-4.4-1.5-8.1-4.6-11.1
			C218.3,66.6,214.6,65.1,210.3,65.1 M197.7,68.2c3.5-3.4,7.6-5.1,12.5-5.1c4.9,0,9.1,1.7,12.6,5.1v0.1c3.5,3.5,5.2,7.6,5.2,12.5
			s-1.7,9.1-5.2,12.5c-3.5,3.5-7.6,5.2-12.6,5.2c-4.9,0-9.1-1.7-12.5-5.2h-0.1c-3.4-3.5-5.2-7.6-5.2-12.5S194.2,71.8,197.7,68.2
			L197.7,68.2"/>
	</g>
	<g>
		<path class="st2" d="M272.5,71.9v17.9c0,4.7,2.4,7,7.1,7h17.8c4.7,0,7.1-2.4,7.1-7V71.9c0-4.7-2.4-7.1-7.1-7.1h-17.8
			C274.9,64.8,272.5,67.2,272.5,71.9 M270.5,71.9c0-6.1,3-9.1,9.1-9.1h17.8c6.1,0,9.1,3,9.1,9.1v17.9c0,3-0.8,5.2-2.4,6.7
			c-1.5,1.6-3.8,2.3-6.8,2.3h-17.8c-3,0-5.3-0.8-6.8-2.3c-1.6-1.5-2.3-3.7-2.3-6.7V71.9"/>
		<path class="st1" d="M274.5,89.8V71.9c0-3.4,1.7-5.1,5.1-5.1h17.8c3.4,0,5.1,1.7,5.1,5.1v17.9c0,3.4-1.7,5-5.1,5h-17.8
			C276.2,94.8,274.5,93.2,274.5,89.8"/>
		<path class="st0" d="M274.5,89.8c0,3.4,1.7,5,5.1,5h17.8c3.4,0,5.1-1.7,5.1-5V71.9c0-3.4-1.7-5.1-5.1-5.1h-17.8
			c-3.4,0-5.1,1.7-5.1,5.1V89.8 M272.5,71.9c0-4.7,2.4-7.1,7.1-7.1h17.8c4.7,0,7.1,2.4,7.1,7.1v17.9c0,4.7-2.4,7-7.1,7h-17.8
			c-4.7,0-7.1-2.4-7.1-7V71.9"/>
	</g>
	<g>
		<path class="st2" d="M349,71.9c0-6.1,3-9.1,9.1-9.1h17.8c6.1,0,9.1,3,9.1,9.1v17.9c0,3-0.8,5.2-2.4,6.7c-1.5,1.6-3.8,2.3-6.8,2.3
			h-17.8c-3,0-5.3-0.8-6.8-2.3c-1.6-1.5-2.3-3.7-2.3-6.7V71.9 M351,71.9v17.9c0,4.7,2.4,7,7.1,7h17.8c4.7,0,7.1-2.4,7.1-7V71.9
			c0-4.7-2.4-7.1-7.1-7.1h-17.8C353.3,64.8,351,67.2,351,71.9"/>
		<path class="st0" d="M351,71.9c0-4.7,2.4-7.1,7.1-7.1h17.8c4.7,0,7.1,2.4,7.1,7.1v17.9c0,4.7-2.4,7-7.1,7h-17.8
			c-4.7,0-7.1-2.4-7.1-7V71.9 M353,89.8c0,3.4,1.7,5,5.1,5h17.8c3.4,0,5.1-1.7,5.1-5V71.9c0-3.4-1.7-5.1-5.1-5.1h-17.8
			c-3.4,0-5.1,1.7-5.1,5.1V89.8"/>
		<path class="st1" d="M353,89.8V71.9c0-3.4,1.7-5.1,5.1-5.1h17.8c3.4,0,5.1,1.7,5.1,5.1v17.9c0,3.4-1.7,5-5.1,5h-17.8
			C354.7,94.8,353,93.2,353,89.8"/>
		<path class="st2" d="M358.2,75l3.1-3c0.2-0.2,0.5-0.2,0.8,0l5,5l5-5c0.3-0.2,0.5-0.2,0.8,0l3,3c0.3,0.3,0.3,0.5,0,0.8l-5,5l5,5
			c0.3,0.2,0.3,0.5,0,0.8l-3,3l-0.8,0l-5-5l-5,5c-0.3,0.3-0.5,0.3-0.8,0l-3-3c-0.3-0.3-0.3-0.5,0-0.8l5.1-5l-5.1-5
			C357.9,75.6,357.9,75.3,358.2,75"/>
	</g>
	<path class="st2" d="M172.3,142.1c0.3,0.3,0.3,0.5,0,0.8l-5,5l5,5c0.3,0.2,0.3,0.5,0,0.8l-3,3l-0.8,0l-5-5l-5,5
		c-0.3,0.3-0.5,0.3-0.8,0l-3-3c-0.3-0.3-0.3-0.5,0-0.8l5.1-5l-5.1-5c-0.2-0.2-0.2-0.5,0-0.8l3.1-3c0.2-0.2,0.5-0.2,0.8,0l5,5l5-5
		c0.3-0.2,0.5-0.2,0.8,0L172.3,142.1"/>
	<path class="st2" d="M126.5,142.1l-12.4,15.8l-0.1,0.2l-0.2,0l-0.2-0.1l-8-11.3l0-0.3l0.1-0.2l5.5-3.1l0.3,0l0.2,0.2l2.3,3.3
		l6.6-8.4l0.3-0.1l0.2,0l5.5,3.6l0.1,0.2L126.5,142.1"/>
	<g>
		<path class="st2" d="M309.7,71.9c0-6.1,3-9.1,9.1-9.1h17.8c6.1,0,9.1,3,9.1,9.1v17.9c0,3-0.8,5.2-2.4,6.7
			c-1.5,1.6-3.8,2.3-6.8,2.3h-17.8c-3,0-5.3-0.8-6.8-2.3c-1.6-1.5-2.3-3.7-2.3-6.7V71.9 M311.7,71.9v17.9c0,4.7,2.4,7,7.1,7h17.8
			c4.7,0,7.1-2.4,7.1-7V71.9c0-4.7-2.4-7.1-7.1-7.1h-17.8C314.1,64.8,311.7,67.2,311.7,71.9"/>
		<path class="st0" d="M311.7,71.9c0-4.7,2.4-7.1,7.1-7.1h17.8c4.7,0,7.1,2.4,7.1,7.1v17.9c0,4.7-2.4,7-7.1,7h-17.8
			c-4.7,0-7.1-2.4-7.1-7V71.9 M313.7,89.8c0,3.4,1.7,5,5.1,5h17.8c3.4,0,5.1-1.7,5.1-5V71.9c0-3.4-1.7-5.1-5.1-5.1h-17.8
			c-3.4,0-5.1,1.7-5.1,5.1V89.8"/>
		<path class="st1" d="M313.7,89.8V71.9c0-3.4,1.7-5.1,5.1-5.1h17.8c3.4,0,5.1,1.7,5.1,5.1v17.9c0,3.4-1.7,5-5.1,5h-17.8
			C315.4,94.8,313.7,93.2,313.7,89.8"/>
		<path class="st2" d="M317.9,79l5.5-3.1l0.3,0l0.2,0.2l2.3,3.3l6.6-8.4l0.3-0.1l0.2,0l5.5,3.6l0.1,0.2l0,0.3l-12.4,15.8l-0.1,0.2
			l-0.2,0l-0.2-0.1l-8-11.3l0-0.3L317.9,79"/>
	</g>
	<g>
		<path class="st0" d="M6.8,8.3L6.8,8.3l0,0.5v33c0,0.7,0.3,1,1,1h37c0.7,0,1-0.3,1-1v-33V8.4l0,0c-0.1-0.3-0.5-0.5-1-0.5h-37
			C7.3,7.8,7,8,6.8,8.3 M3.9,7.9c0.3-2,1.6-3,3.9-3h37c2.3,0,3.6,1,4,3l0,1v33c0,2.7-1.3,4-4,4h-37c-2.7,0-4-1.3-4-4v-33L3.9,7.9"/>
		<path class="st3" d="M3.9,7.9l-0.1,1v33c0,2.7,1.3,4,4,4h37c2.7,0,4-1.3,4-4v-33l0-1c-0.3-2-1.6-3-4-3h-37
			C5.4,4.8,4.1,5.9,3.9,7.9 M1.8,42.1V8.8c0-4,2-6,6-6h37c4,0,6,2,6,6v33.3c-0.1,3.8-2.1,5.8-6,5.8h-37C3.9,47.8,1.9,45.9,1.8,42.1"
			/>
		<path class="st1" d="M6.8,8.3C7,8,7.3,7.8,7.8,7.8h37c0.5,0,0.8,0.2,1,0.5l0,0v0.5v33c0,0.7-0.3,1-1,1h-37c-0.7,0-1-0.3-1-1v-33
			L6.8,8.3L6.8,8.3"/>
		<path class="st4" d="M50.8,42.1v3.8c0,4-2,6-6,6h-37c-4,0-6-2-6-6v-3.8c0.1,3.8,2.1,5.8,6,5.8h37C48.7,47.8,50.7,45.9,50.8,42.1"
			/>
	</g>
	<g>
		<path class="st0" d="M58.8,4.7h37c2.3,0,3.6,1,4,3l0,1v33c0,2.7-1.3,4-4,4h-37c-2.7,0-4-1.3-4-4v-33l0.1-1
			C55.1,5.7,56.4,4.7,58.8,4.7 M96.8,25.2h-39v16.5c0,0.7,0.3,1,1,1h37c0.7,0,1-0.3,1-1V25.2"/>
		<path class="st1" d="M96.8,25.2v16.5c0,0.7-0.3,1-1,1h-37c-0.7,0-1-0.3-1-1V25.2H96.8"/>
		<path class="st3" d="M52.8,41.9V8.7c0-4,2-6,6-6h37c4,0,6,2,6,6v33.3c-0.1,3.8-2.1,5.8-6,5.8h-37C54.9,47.7,52.9,45.8,52.8,41.9
			 M58.8,4.7c-2.3,0-3.6,1-3.9,3l-0.1,1v33c0,2.7,1.3,4,4,4h37c2.7,0,4-1.3,4-4v-33l0-1c-0.3-2-1.6-3-4-3H58.8"/>
		<path class="st4" d="M101.8,41.9v3.8c0,4-2,6-6,6h-37c-4,0-6-2-6-6v-3.8c0.1,3.8,2.1,5.8,6,5.8h37
			C99.7,47.7,101.7,45.8,101.8,41.9"/>
	</g>
	<g>
		<path class="st0" d="M150.5,11.4l0,1v33l0,1c-0.3,2-1.6,3-4,3h-37c-2.3,0-3.6-1-3.9-3l-0.1-1v-33l0.1-1c0.3-2,1.6-3,3.9-3h37
			C148.9,8.3,150.2,9.4,150.5,11.4 M146.5,46.3c0.7,0,1-0.3,1-1V28.8h-39v16.5c0,0.7,0.3,1,1,1H146.5"/>
		<path class="st3" d="M152.5,12.3v33v0.3c-0.1,3.8-2.1,5.8-6,5.8h-37h-0.3h-0.1h-0.2h-0.1h-0.1h-0.1c-3.1-0.3-4.8-2-5.1-5.1l0-0.6
			V12.3c0-4,2-6,6-6h37C150.5,6.3,152.5,8.3,152.5,12.3 M150.5,11.4c-0.3-2-1.6-3-4-3h-37c-2.3,0-3.6,1-3.9,3l-0.1,1v33l0.1,1
			c0.3,2,1.6,3,3.9,3h37c2.3,0,3.6-1,4-3l0-1v-33L150.5,11.4"/>
		<path class="st1" d="M146.5,46.3h-37c-0.7,0-1-0.3-1-1V28.8h39v16.5C147.5,46,147.2,46.3,146.5,46.3"/>
	</g>
	<g>
		<path class="st0" d="M156.4,8c0.3-2,1.6-3,3.9-3h37c2.3,0,3.6,1,4,3l0,1v33c0,2.7-1.3,4-4,4h-37c-2.7,0-4-1.3-4-4V9L156.4,8
			 M158.4,8.3l0,0.2l0,0.5v33c0,1.3,0.7,2,2,2h37c1.3,0,2-0.7,2-2V9l0-0.7l0,0.1c-0.2-0.9-0.9-1.4-2-1.4h-37
			C159.2,7,158.5,7.4,158.4,8.3"/>
		<path class="st1" d="M158.4,8.3c0.2-0.9,0.8-1.3,1.9-1.3h37c1.1,0,1.8,0.4,2,1.4l0-0.1l0,0.7v33c0,1.3-0.7,2-2,2h-37
			c-1.3,0-2-0.7-2-2V9l0-0.5L158.4,8.3"/>
		<path class="st3" d="M154.3,42.3V9c0-4,2-6,6-6h37c4,0,6,2,6,6v33.3c-0.1,3.8-2.1,5.8-6,5.8h-37C156.4,48,154.4,46.1,154.3,42.3
			 M156.4,8l-0.1,1v33c0,2.7,1.3,4,4,4h37c2.7,0,4-1.3,4-4V9l0-1c-0.3-2-1.6-3-4-3h-37C157.9,5,156.6,6,156.4,8"/>
		<path class="st4" d="M203.3,42.3V46c0,4-2,6-6,6h-37c-4,0-6-2-6-6v-3.8c0.1,3.8,2.1,5.8,6,5.8h37C201.2,48,203.2,46.1,203.3,42.3"
			/>
	</g>
	<g>
		<path class="st0" d="M209.1,11.8l0,0.2l0,0.5v33l0,0.6l0,0.1c0.2,0.8,0.8,1.3,1.9,1.3h37c1.1,0,1.7-0.4,2-1.2l0-0.8v-33l0-0.7
			l0,0.1c-0.2-0.9-0.9-1.4-2-1.4h-37C209.9,10.5,209.3,10.9,209.1,11.8 M207.1,11.5c0.3-2,1.6-3,3.9-3h37c2.3,0,3.6,1,4,3l0,1v33
			l0,1c-0.3,2-1.6,3-4,3h-37c-2.3,0-3.6-1-3.9-3l-0.1-1v-33L207.1,11.5"/>
		<path class="st3" d="M207.1,11.5l-0.1,1v33l0.1,1c0.3,2,1.6,3,3.9,3h37c2.3,0,3.6-1,4-3l0-1v-33l0-1c-0.3-2-1.6-3-4-3h-37
			C208.7,8.5,207.4,9.5,207.1,11.5 M211,6.5h37c4,0,6,2,6,6v33v0.3c-0.1,3.8-2.1,5.8-6,5.8h-37h-0.3h-0.2h-0.2h-0.1h-0.1h-0.1
			c-3.1-0.3-4.8-2-5-5.1l0-0.6V12.5C205,8.5,207,6.5,211,6.5"/>
		<path class="st1" d="M209.1,11.8c0.2-0.9,0.8-1.3,1.9-1.3h37c1.1,0,1.8,0.4,2,1.4l0-0.1l0,0.7v33l0,0.8c-0.2,0.8-0.9,1.2-2,1.2
			h-37c-1.1,0-1.7-0.4-1.9-1.3l0-0.1l0-0.6v-33l0-0.5L209.1,11.8"/>
	</g>
	<g>
		<path class="st0" d="M238.3,69.7c3.1-3.1,6.8-4.6,11.1-4.6c4.4,0,8.1,1.5,11.1,4.6c3.1,3.1,4.6,6.8,4.6,11.1c0,4.3-1.5,8-4.6,11.1
			l0,0c-3.1,3.1-6.8,4.6-11.1,4.6c-4.4,0-8.1-1.5-11.1-4.6c-3.1-3.1-4.6-6.8-4.6-11.1C233.7,76.5,235.3,72.8,238.3,69.7 M239.7,71.1
			c-2.7,2.7-4,5.9-4,9.8s1.3,7,4,9.7c2.7,2.7,5.9,4,9.8,4s7-1.4,9.7-4c2.7-2.7,4-5.9,4-9.7s-1.4-7.1-4-9.8c-2.7-2.7-5.9-4-9.7-4
			S242.4,68.4,239.7,71.1"/>
		<path class="st1" d="M239.7,71.1c2.7-2.7,5.9-4,9.8-4s7,1.3,9.7,4c2.7,2.7,4,5.9,4,9.8s-1.4,7-4,9.7c-2.7,2.7-5.9,4-9.7,4
			s-7.1-1.4-9.8-4c-2.7-2.7-4-5.9-4-9.7S237.1,73.8,239.7,71.1"/>
		<path class="st2" d="M238.3,69.7c-3.1,3.1-4.6,6.8-4.6,11.1c0,4.4,1.5,8.1,4.6,11.1c3.1,3.1,6.8,4.6,11.1,4.6
			c4.3,0,8-1.5,11.1-4.6l0,0c3.1-3.1,4.6-6.8,4.6-11.1c0-4.4-1.5-8.1-4.6-11.1c-3.1-3.1-6.8-4.6-11.1-4.6
			C245.2,65.1,241.4,66.6,238.3,69.7 M236.9,68.3L236.9,68.3c3.5-3.5,7.7-5.2,12.6-5.2s9.1,1.7,12.5,5.1v0.1
			c3.5,3.5,5.2,7.6,5.2,12.5s-1.7,9.1-5.2,12.5c-3.5,3.5-7.6,5.2-12.5,5.2s-9.1-1.7-12.5-5.2h-0.1c-3.4-3.5-5.1-7.6-5.1-12.5
			S233.5,71.8,236.9,68.3"/>
		<path class="st2" d="M241.2,80.8c0-2.3,0.8-4.2,2.4-5.9c1.6-1.6,3.5-2.4,5.9-2.4c2.3,0,4.2,0.8,5.8,2.4c1.6,1.6,2.5,3.6,2.5,5.9
			s-0.8,4.2-2.5,5.8c-1.6,1.6-3.5,2.5-5.8,2.5c-2.3,0-4.3-0.8-5.9-2.5C242,85,241.2,83.1,241.2,80.8"/>
	</g>
	<path class="st2" d="M60.6,145.5c1.6,1.6,2.5,3.6,2.5,5.8s-0.8,4.2-2.5,5.8c-1.6,1.6-3.5,2.5-5.8,2.5c-2.3,0-4.3-0.8-5.9-2.5
		c-1.6-1.6-2.4-3.5-2.4-5.8s0.8-4.2,2.4-5.8c1.6-1.6,3.5-2.4,5.9-2.4C57,143.1,59,143.9,60.6,145.5"/>
	<path class="st0" d="M41.8,151.3c0,2.3-0.8,4.2-2.5,5.8c-1.6,1.6-3.5,2.5-5.8,2.5c-2.3,0-4.3-0.8-5.9-2.5c-1.6-1.6-2.4-3.5-2.4-5.8
		s0.8-4.2,2.4-5.8c1.6-1.6,3.6-2.4,5.9-2.4c2.3,0,4.2,0.8,5.8,2.4C40.9,147.1,41.8,149,41.8,151.3"/>
	<path class="st0" d="M95.9,138.1l5.4,3.6l0.2,0.2l-0.1,0.3l-12.3,15.8l-0.2,0.2l-0.2,0l-0.2-0.1l-8-11.3l0-0.3l0.2-0.2l5.4-3.1
		l0.3,0l0.2,0.2l2.3,3.3l6.5-8.4l0.3-0.1L95.9,138.1"/>
	<path class="st0" d="M149.3,142.5c0.3,0.3,0.3,0.5,0,0.8l-5,5l5,5c0.3,0.2,0.3,0.5,0,0.8l-3,3l-0.8,0l-5-5l-5.1,5
		c-0.3,0.3-0.5,0.3-0.8,0l-3-3c-0.3-0.3-0.3-0.5,0-0.8l5.1-5l-5.1-5c-0.2-0.2-0.2-0.5,0-0.8l3.1-3c0.2-0.2,0.5-0.2,0.8,0l5,5l5.1-5
		c0.3-0.2,0.5-0.2,0.8,0L149.3,142.5"/>
	<g>
		<path class="st0" d="M302.7,7l0,1v33c0,2.7-1.3,4-4,4h-37c-2.7,0-4-1.3-4-4V8l0.1-1c0.3-2,1.6-3,3.9-3h37C301.1,4,302.4,5,302.7,7
			 M300.7,7.3L300.7,7.3c-0.2-0.9-0.8-1.3-2-1.3h-37c-1.1,0-1.7,0.4-1.9,1.3l0,0.2l0,0.5v33c0,1.3,0.7,2,2,2h37c1.3,0,2-0.7,2-2V8
			L300.7,7.3"/>
		
			<linearGradient id="SVGID_1_" gradientUnits="userSpaceOnUse" x1="-19121.3262" y1="-16851.8984" x2="-17482.9277" y2="-16851.8984" gradientTransform="matrix(0 2.502441e-02 2.258301e-02 0 660.8416 482.5)">
			<stop  offset="0" style="stop-color:#FFFFFF"/>
			<stop  offset="1" style="stop-color:#EEEEEE"/>
		</linearGradient>
		<path class="st5" d="M300.7,7.3l0,0.7v33c0,1.3-0.7,2-2,2h-37c-1.3,0-2-0.7-2-2V8l0-0.5l0-0.2c0.2-0.9,0.8-1.3,1.9-1.3h37
			C299.9,6,300.5,6.4,300.7,7.3L300.7,7.3"/>
		<path class="st3" d="M302.7,7c-0.3-2-1.6-3-4-3h-37c-2.3,0-3.6,1-3.9,3l-0.1,1v33c0,2.7,1.3,4,4,4h37c2.7,0,4-1.3,4-4V8L302.7,7
			 M255.8,41.3V8c0-4,2-6,6-6h37c4,0,6,2,6,6v33.3c-0.1,3.8-2.1,5.8-6,5.8h-37C257.9,47,255.9,45.1,255.8,41.3"/>
		<path class="st4" d="M255.8,41.3c0.1,3.8,2.1,5.8,6,5.8h37c3.9,0,5.9-1.9,6-5.8V45c0,4-2,6-6,6h-37c-4,0-6-2-6-6V41.3"/>
	</g>
	<g>
		<path class="st0" d="M351.5,11.5L351.5,11.5c-0.2-0.9-0.8-1.3-2-1.3h-37c-1.1,0-1.7,0.4-1.9,1.3l0,0.2l0,0.5v33c0,1.3,0.7,2,2,2
			h37c1.3,0,2-0.7,2-2v-33L351.5,11.5 M353.5,11.2l0,1v33c0,2.7-1.3,4-4,4h-37c-2.7,0-4-1.3-4-4v-33l0.1-1c0.3-2,1.6-3,3.9-3h37
			C351.9,8.2,353.2,9.2,353.5,11.2"/>
		<path class="st3" d="M353.5,11.2c-0.3-2-1.6-3-4-3h-37c-2.3,0-3.6,1-3.9,3l-0.1,1v33c0,2.7,1.3,4,4,4h37c2.7,0,4-1.3,4-4v-33
			L353.5,11.2 M355.5,12.2v33.3c-0.1,3.8-2.1,5.8-6,5.8h-37c-3.9,0-5.9-1.9-6-5.8V12.2c0-4,2-6,6-6h37
			C353.5,6.2,355.5,8.2,355.5,12.2"/>
		
			<linearGradient id="SVGID_2_" gradientUnits="userSpaceOnUse" x1="-19114.666" y1="-17261.498" x2="-17476.2676" y2="-17261.498" gradientTransform="matrix(0 2.502441e-02 2.258301e-02 0 720.8416 486.5)">
			<stop  offset="0" style="stop-color:#FFFFFF"/>
			<stop  offset="1" style="stop-color:#EEEEEE"/>
		</linearGradient>
		<path class="st6" d="M351.5,11.5l0,0.7v33c0,1.3-0.7,2-2,2h-37c-1.3,0-2-0.7-2-2v-33l0-0.5l0-0.2c0.2-0.9,0.8-1.3,1.9-1.3h37
			C350.6,10.2,351.3,10.6,351.5,11.5L351.5,11.5"/>
	</g>
	<path class="st0" d="M18.1,124.1l-5.8,6.7l-0.8,0.5h-1l-0.8-0.5l-5.8-6.7c-0.3-0.4-0.4-0.8-0.4-1.2c0-0.5,0.2-0.8,0.5-1.1
		c0.3-0.3,0.7-0.5,1.2-0.5h11.6c0.5,0,0.9,0.1,1.2,0.5c0.3,0.3,0.5,0.7,0.5,1.1L18.1,124.1"/>
	<path class="st0" d="M11.5,108l0.8,0.5l5.8,6.7c0.3,0.4,0.5,0.8,0.5,1.2c0,0.5-0.2,0.8-0.5,1.1c-0.3,0.3-0.7,0.5-1.2,0.5H5.2
		c-0.4,0-0.8-0.1-1.2-0.5c-0.3-0.3-0.5-0.7-0.5-1.1c0-0.4,0.1-0.8,0.4-1.2l5.8-6.7l0.8-0.5C10.9,107.9,11.2,107.9,11.5,108"/>
	<path class="st2" d="M11.5,156.1h-1l-0.8-0.5l-5.8-6.7c-0.3-0.4-0.4-0.8-0.4-1.2c0-0.5,0.2-0.9,0.5-1.1c0.3-0.3,0.7-0.5,1.2-0.5
		h11.6c0.5,0,0.9,0.1,1.2,0.5c0.3,0.3,0.5,0.7,0.5,1.1l-0.5,1.2l-5.8,6.7L11.5,156.1"/>
	<path class="st2" d="M10.5,133.1c0.3-0.1,0.6-0.1,1,0l0.8,0.5l5.8,6.7c0.3,0.4,0.5,0.8,0.5,1.2c0,0.5-0.2,0.8-0.5,1.1
		c-0.3,0.3-0.7,0.5-1.2,0.5H5.2c-0.4,0-0.8-0.1-1.2-0.5c-0.3-0.3-0.5-0.7-0.5-1.1c0-0.4,0.1-0.8,0.4-1.2l5.8-6.7L10.5,133.1"/>
	<g>
		<path class="st2" d="M364,42.9v-21c0-1.1,0.4-2,1.2-2.8l10-10.1c0.8-0.8,1.7-1.2,2.8-1.2s2,0.4,2.8,1.2l10,10.1
			c0.8,0.8,1.2,1.7,1.2,2.8v21c0,1.1-0.4,2-1.2,2.8c-0.8,0.8-1.7,1.1-2.8,1.1h-20c-1.1,0-2-0.4-2.8-1.1h0
			C364.4,44.8,364,43.9,364,42.9 M378,9.8c-0.6,0-1,0.2-1.4,0.6l-10,10.1l-0.4,0.5l-0.2,0.9v20.9c0,0.6,0.2,1.1,0.6,1.5
			c0.4,0.4,0.8,0.5,1.4,0.5h20c0.6,0,1-0.2,1.5-0.5c0.4-0.4,0.5-0.9,0.5-1.5V21.9l-0.2-0.8l-0.4-0.6l-10-10.1
			C379,9.9,378.5,9.8,378,9.8"/>
		<path class="st0" d="M378,9.8c0.6,0,1,0.2,1.5,0.6l10,10.1l0.4,0.6l0.2,0.8v20.9c0,0.6-0.2,1.1-0.5,1.5c-0.4,0.4-0.9,0.5-1.5,0.5
			h-20c-0.6,0-1-0.2-1.4-0.5c-0.4-0.4-0.6-0.9-0.6-1.5V21.9l0.2-0.9l0.4-0.5l10-10.1C376.9,9.9,377.4,9.8,378,9.8 M368,21.9v20.9h20
			V21.9l-10-10.1L368,21.9"/>
		<path class="st1" d="M368,21.9l10-10.1l10,10.1v20.9h-20V21.9"/>
		<path class="st7" d="M392,42.9v2.9c0,1.1-0.4,2.1-1.2,2.9c-0.8,0.8-1.7,1.1-2.8,1.1h-20c-1.1,0-2-0.4-2.8-1.1h0
			c-0.8-0.8-1.2-1.8-1.2-2.9v-2.9c0,1.1,0.4,2,1.2,2.8h0c0.8,0.8,1.7,1.1,2.8,1.1h20c1.1,0,2-0.4,2.8-1.1
			C391.6,44.8,391.9,43.9,392,42.9"/>
	</g>
	<g>
		<path class="st0" d="M396.6,11.3c0.1-0.4,0.3-0.7,0.5-1c0.4-0.4,0.8-0.5,1.4-0.5h20c0.6,0,1,0.2,1.5,0.5l0.5,1l0,0.5v20.9
			l-0.2,0.8L420,34l-10,10.1c-0.4,0.4-0.9,0.6-1.5,0.6s-1-0.2-1.4-0.6l-10-10.1l-0.4-0.5l-0.2-0.9V11.8L396.6,11.3 M398.5,11.8v20.9
			l10,10.1l10-10.1V11.8H398.5"/>
		<path class="st2" d="M396.6,11.3l0,0.5v20.9l0.2,0.9l0.4,0.5l10,10.1c0.4,0.4,0.8,0.6,1.4,0.6s1-0.2,1.5-0.6L420,34l0.4-0.6
			l0.2-0.8V11.8l0-0.5l-0.5-1c-0.4-0.4-0.9-0.5-1.5-0.5h-20c-0.6,0-1,0.2-1.4,0.5C396.9,10.6,396.7,10.9,396.6,11.3 M394.5,32.8
			V11.6c0-1.1,0.4-2,1.2-2.8h0c0.8-0.8,1.7-1.1,2.8-1.1h20c1.1,0,2,0.4,2.8,1.1c0.7,0.8,1.1,1.7,1.2,2.8v21.1c0,1.1-0.4,2-1.2,2.7
			l-10,10.1c-0.8,0.8-1.7,1.2-2.8,1.2s-2-0.4-2.8-1.2l-10-10.1C394.9,34.7,394.6,33.8,394.5,32.8"/>
		<path class="st7" d="M394.5,32.8c0,1.1,0.4,2,1.2,2.7l10,10.1c0.8,0.8,1.7,1.2,2.8,1.2s2-0.4,2.8-1.2l10-10.1
			c0.7-0.7,1.1-1.6,1.2-2.7v2.9c0,1.1-0.4,2-1.2,2.8l-10,10.1c-0.8,0.8-1.7,1.2-2.8,1.2s-2-0.4-2.8-1.2l-10-10.1
			c-0.8-0.8-1.2-1.7-1.2-2.8V32.8"/>
		<path class="st1" d="M398.5,11.8h20v20.9l-10,10.1l-10-10.1V11.8"/>
	</g>
	<g>
		<path class="st1" d="M460,11.8v20h-20.9l-10.1-10l10.1-10H460"/>
		<path class="st0" d="M460,11.8h-20.9l-10.1,10l10.1,10H460V11.8 M462,31.8c0,0.6-0.2,1-0.6,1.4c-0.4,0.4-0.9,0.6-1.4,0.6h-20.9
			l-0.8-0.2l-0.6-0.4l-10.1-10c-0.4-0.4-0.6-0.8-0.6-1.4s0.2-1.1,0.6-1.5l10.1-10l0.6-0.4l0.8-0.1H460c0.6,0,1,0.2,1.4,0.5
			c0.4,0.4,0.6,0.9,0.6,1.5V31.8"/>
		<path class="st2" d="M462,31.8v-20c0-0.6-0.2-1.1-0.6-1.5c-0.4-0.4-0.9-0.5-1.4-0.5h-20.9l-0.8,0.1l-0.6,0.4l-10.1,10
			c-0.4,0.4-0.6,0.9-0.6,1.5s0.2,1,0.6,1.4l10.1,10l0.6,0.4l0.8,0.2H460c0.6,0,1-0.2,1.4-0.6C461.8,32.8,462,32.3,462,31.8
			 M425,22.3l-0.1-0.5c0-1.1,0.4-2.1,1.2-2.9l10.1-10c0.8-0.8,1.7-1.1,2.8-1.1h21c1.1,0,2,0.4,2.8,1.1c0.8,0.8,1.2,1.8,1.2,2.9v20.1
			c0,1.1-0.4,2-1.2,2.7v0.1c-0.8,0.7-1.7,1.1-2.8,1.1h-21c-1.1,0-2-0.4-2.8-1.1l-10.1-10C425.5,23.9,425.1,23.1,425,22.3"/>
		<path class="st7" d="M425,22.3c0.1,0.9,0.5,1.7,1.1,2.4l10.1,10c0.8,0.8,1.7,1.1,2.8,1.1h21c1.1,0,2-0.4,2.8-1.1v-0.1
			c0.7-0.7,1.1-1.6,1.2-2.7v2.9c0,1.1-0.4,2-1.2,2.8v0.1c-0.8,0.7-1.7,1.1-2.8,1.1h-21c-1.1,0-2-0.4-2.8-1.1l-10.1-10
			c-0.8-0.8-1.2-1.8-1.2-2.9l0.1-0.5l-0.1-0.5l0.1-0.5l-0.1-0.5L425,22.3"/>
	</g>
	<g>
		<path class="st2" d="M506.9,22.3c-0.1,0.9-0.5,1.7-1.1,2.4l-10.1,10c-0.8,0.8-1.7,1.1-2.8,1.1h-21c-1.1,0-2-0.4-2.8-1.1v-0.1
			c-0.7-0.7-1.1-1.6-1.2-2.7V11.8c0-1.1,0.4-2.1,1.2-2.9c0.8-0.7,1.7-1.1,2.8-1.1h21c1.1,0,2,0.4,2.8,1.1l10.1,10
			c0.8,0.8,1.2,1.8,1.2,2.9L506.9,22.3 M505,21.8c0-0.6-0.2-1.1-0.6-1.5l-10.1-10c-0.2-0.2-0.4-0.3-0.6-0.4l-0.8-0.1H472
			c-0.6,0-1,0.2-1.4,0.5c-0.4,0.4-0.6,0.9-0.6,1.5v20c0,0.6,0.2,1,0.6,1.4c0.4,0.4,0.9,0.6,1.4,0.6h20.9l0.8-0.2l0.6-0.4l10.1-10
			C504.8,22.8,505,22.3,505,21.8"/>
		<path class="st7" d="M468,31.9c0,1.1,0.4,2,1.2,2.7v0.1c0.8,0.7,1.7,1.1,2.8,1.1h21c1.1,0,2-0.4,2.8-1.1l10.1-10
			c0.7-0.7,1-1.5,1.1-2.4l0.1,0.5l-0.1,0.5l0.1,0.5l-0.1,0.5l0.1,0.5c0,1.1-0.4,2.1-1.2,2.9l-10.1,10c-0.8,0.8-1.7,1.1-2.8,1.1h-21
			c-1.1,0-2-0.4-2.8-1.1v-0.1c-0.8-0.8-1.2-1.7-1.2-2.8V31.9"/>
		<path class="st0" d="M505,21.8c0,0.6-0.2,1-0.6,1.4l-10.1,10l-0.6,0.4l-0.8,0.2H472c-0.6,0-1-0.2-1.4-0.6
			c-0.4-0.4-0.6-0.8-0.6-1.4v-20c0-0.6,0.2-1.1,0.6-1.5c0.4-0.4,0.9-0.5,1.4-0.5h20.9l0.8,0.1c0.2,0.1,0.4,0.2,0.6,0.4l10.1,10
			C504.8,20.7,505,21.2,505,21.8 M472,11.8v20h20.9l10.1-10l-10.1-10H472"/>
		<path class="st1" d="M472,11.8h20.9l10.1,10l-10.1,10H472V11.8"/>
	</g>
	<path class="st2" d="M33.5,118v-2h190v2H33.5"/>
	<path class="st0" d="M33.5,118h190v2h-190V118"/>
	<path class="st0" d="M77.3,150.8v0.5v0.5v0.5c0,1.1-0.4,2.1-1.2,2.9c-0.8,0.8-1.7,1.1-2.8,1.1s-2-0.4-2.8-1.1
		c-0.8-0.8-1.2-1.8-1.2-2.9l0-0.5l0-0.5l0-0.5c0.1,0.9,0.5,1.7,1.1,2.4c0.8,0.8,1.7,1.1,2.8,1.1s2-0.4,2.8-1.1
		C76.7,152.5,77.1,151.7,77.3,150.8"/>
	<path class="st2" d="M77.3,150.8c-0.1,0.9-0.5,1.7-1.2,2.4c-0.8,0.8-1.7,1.1-2.8,1.1s-2-0.4-2.8-1.1c-0.6-0.7-1-1.5-1.1-2.4l0-0.5
		c0-1.1,0.4-2,1.2-2.8c0.8-0.8,1.7-1.2,2.8-1.2s2,0.4,2.8,1.2c0.8,0.8,1.2,1.7,1.2,2.8V150.8"/>
	<g>
		<path class="st0" d="M189.8,64.3c0-4-2-6-6-6H9.8c-4,0-6,2-6,6v33v0.3l0.1,0.6c0.2,3.2,1.9,4.9,5,5.1H9h0.1h0.1h0.2h0.2h0.1h174.7
			c3.6-0.2,5.4-2.1,5.5-5.8v-0.3V64.3 M5.8,66l0.1-0.6c0.3-2,1.6-3,3.9-3h174c2.3,0,3.7,1,3.9,3l0.1,0.6v31.6l-0.1,0.8
			c-0.3,2-1.6,3-3.9,3H9.8c-2.3,0-3.6-1-3.9-3l-0.1-0.9V66 M191.8,64.3v33v0.3v0c-0.1,4.9-2.6,7.5-7.4,7.7H9.6H9.5H9.4H9.2H9.1H9
			H8.9H8.7c-4.3-0.4-6.6-2.7-6.9-7l-0.1-0.8v-0.3v-33c0-5.3,2.7-8,8-8h174C189.1,56.3,191.8,59,191.8,64.3"/>
		<path class="st8" d="M187.8,65.9l-0.1-0.6c-0.3-2-1.6-3-3.9-3H9.8c-2.3,0-3.6,1-3.9,3L5.8,66v-1.6l0.1-1c0.3-2,1.6-3,3.9-3h174
			c2.3,0,3.7,1,3.9,3l0.1,1V65.9"/>
		<path class="st9" d="M187.8,65.9v-1.6l-0.1-1c-0.3-2-1.6-3-3.9-3H9.8c-2.3,0-3.6,1-3.9,3l-0.1,1V66v31.5l0.1,0.9
			c0.3,2,1.6,3,3.9,3h174c2.3,0,3.7-1,3.9-3l0.1-0.8V65.9 M189.8,64.3v33v0.3c-0.1,3.7-1.9,5.6-5.5,5.8H9.6H9.5H9.4H9.2H9.1H9H8.9
			c-3.1-0.3-4.8-2-5-5.1l-0.1-0.6v-0.3v-33c0-4,2-6,6-6h174C187.8,58.3,189.8,60.3,189.8,64.3"/>
		<path class="st10" d="M176.7,83.9h-160v-2h160V83.9"/>
	</g>
</g>
</svg>
